<svg id="svg" version="1.1" xmlns="http://www.w3.org/2000/svg" xmlns:xlink="http://www.w3.org/1999/xlink" width="400" height="400" viewBox="0, 0, 400,400"><g id="svgg"><path id="path0" d="M10.795 6.801 C 10.523 6.910,10.301 7.118,10.301 7.262 C 10.301 7.407,10.241 7.465,10.167 7.391 C 10.093 7.317,9.414 7.891,8.658 8.666 C 7.474 9.879,6.870 10.772,5.895 12.751 C 5.787 12.971,5.600 13.347,5.479 13.586 C 5.359 13.826,5.260 14.171,5.260 14.353 C 5.260 14.536,5.162 14.685,5.041 14.685 C 4.921 14.685,4.822 14.932,4.822 15.233 C 4.822 15.534,4.732 15.781,4.622 15.781 C 4.512 15.781,4.353 16.200,4.268 16.712 C 4.183 17.225,4.002 17.841,3.866 18.082 C 3.730 18.323,3.611 18.619,3.602 18.740 C 3.594 18.860,3.501 19.403,3.396 19.945 C 3.291 20.488,3.224 21.005,3.247 21.096 C 3.269 21.186,3.205 21.260,3.104 21.260 C 3.003 21.260,2.903 21.720,2.882 22.283 C 2.860 22.845,2.764 23.412,2.668 23.543 C 2.572 23.674,2.503 23.929,2.515 24.110 C 2.526 24.290,2.455 24.833,2.357 25.315 C 2.258 25.797,2.107 26.932,2.020 27.836 C 1.855 29.562,1.794 365.891,1.958 368.548 C 2.010 369.392,2.106 370.181,2.171 370.301 C 2.296 370.533,2.300 370.554,2.490 371.912 C 2.557 372.390,2.666 373.012,2.733 373.295 C 2.800 373.577,2.890 374.104,2.933 374.466 C 2.976 374.827,3.065 375.271,3.131 375.452 C 3.323 375.978,3.572 377.057,3.615 377.552 C 3.637 377.803,3.742 378.148,3.848 378.319 C 3.955 378.490,4.068 378.799,4.100 379.004 C 4.133 379.210,4.414 380.017,4.727 380.797 C 5.039 381.577,5.319 382.346,5.348 382.505 C 5.636 384.056,8.031 387.406,10.067 389.107 L 11.038 389.918 196.938 389.918 C 336.488 389.918,383.019 389.855,383.562 389.666 C 383.960 389.527,384.466 389.256,384.688 389.063 C 384.909 388.870,385.386 388.466,385.747 388.164 C 386.108 387.863,386.405 387.490,386.407 387.336 C 386.409 387.181,386.559 386.998,386.740 386.929 C 386.921 386.859,387.068 386.680,387.068 386.531 C 387.068 386.382,387.266 386.081,387.507 385.863 C 387.748 385.645,387.945 385.334,387.945 385.172 C 387.945 385.009,388.050 384.877,388.177 384.877 C 388.305 384.877,388.354 384.787,388.286 384.676 C 388.217 384.566,388.266 384.441,388.394 384.398 C 388.522 384.356,388.650 384.160,388.679 383.963 C 388.708 383.767,388.863 383.448,389.023 383.255 C 389.183 383.062,389.254 382.904,389.180 382.904 C 389.107 382.904,389.283 382.369,389.572 381.716 C 389.861 381.062,390.041 380.470,389.971 380.401 C 389.902 380.331,389.976 380.274,390.137 380.274 C 390.298 380.274,390.373 380.218,390.305 380.150 C 390.236 380.081,390.362 379.509,390.584 378.878 C 390.806 378.247,391.020 377.489,391.061 377.194 C 391.101 376.899,391.211 376.536,391.304 376.387 C 391.398 376.238,391.514 375.794,391.562 375.400 C 391.757 373.825,392.075 372.007,392.305 371.154 C 392.439 370.659,392.545 370.018,392.541 369.730 C 392.538 369.441,392.583 368.811,392.641 368.329 C 392.771 367.259,392.784 29.136,392.654 28.055 C 392.241 24.613,392.244 24.630,392.044 24.110 C 391.930 23.811,391.807 22.978,391.608 21.142 C 391.568 20.776,391.445 20.332,391.336 20.156 C 391.226 19.980,391.121 19.638,391.102 19.397 C 391.083 19.156,390.956 18.679,390.820 18.338 C 390.684 17.996,390.628 17.626,390.696 17.516 C 390.765 17.405,390.716 17.315,390.588 17.315 C 390.461 17.315,390.356 17.130,390.356 16.904 C 390.356 16.678,390.110 15.935,389.808 15.254 C 389.507 14.572,389.260 13.893,389.260 13.743 C 389.260 13.594,389.010 13.104,388.704 12.654 C 388.399 12.204,388.208 11.836,388.282 11.836 C 388.355 11.836,388.260 11.681,388.070 11.491 C 387.881 11.302,387.726 11.006,387.726 10.834 C 387.726 10.661,387.622 10.521,387.494 10.521 C 387.366 10.521,387.312 10.440,387.373 10.341 C 387.434 10.243,387.291 10.024,387.057 9.855 C 386.822 9.685,386.630 9.465,386.630 9.364 C 386.630 9.068,384.397 7.014,384.075 7.014 C 383.913 7.014,383.781 6.915,383.781 6.795 C 383.781 6.511,11.502 6.517,10.795 6.801 M380.366 38.270 C 380.681 38.391,380.712 52.694,380.712 198.270 L 380.712 358.137 197.370 358.137 L 14.027 358.137 14.027 198.283 C 14.027 110.363,14.093 38.363,14.174 38.283 C 14.356 38.101,379.890 38.088,380.366 38.270 M165.534 73.576 C 165.745 73.631,166.090 73.631,166.301 73.576 C 166.512 73.521,166.340 73.476,165.918 73.476 C 165.496 73.476,165.323 73.521,165.534 73.576 M186.575 73.582 C 186.907 73.632,187.449 73.632,187.781 73.582 C 188.112 73.531,187.841 73.490,187.178 73.490 C 186.515 73.490,186.244 73.531,186.575 73.582 M208.493 73.576 C 208.704 73.631,209.049 73.631,209.260 73.576 C 209.471 73.521,209.299 73.476,208.877 73.476 C 208.455 73.476,208.282 73.521,208.493 73.576 M229.534 73.582 C 229.866 73.632,230.408 73.632,230.740 73.582 C 231.071 73.531,230.800 73.490,230.137 73.490 C 229.474 73.490,229.203 73.531,229.534 73.582 M108.986 74.014 C 109.197 74.069,109.542 74.069,109.753 74.014 C 109.964 73.959,109.792 73.914,109.370 73.914 C 108.948 73.914,108.775 73.959,108.986 74.014 M133.973 74.014 C 134.184 74.069,134.529 74.069,134.740 74.014 C 134.951 73.959,134.778 73.914,134.356 73.914 C 133.934 73.914,133.762 73.959,133.973 74.014 M138.356 74.014 C 138.567 74.069,138.912 74.069,139.123 74.014 C 139.334 73.959,139.162 73.914,138.740 73.914 C 138.318 73.914,138.145 73.959,138.356 74.014 M276.000 74.014 C 276.211 74.069,276.556 74.069,276.767 74.014 C 276.978 73.959,276.805 73.914,276.384 73.914 C 275.962 73.914,275.789 73.959,276.000 74.014 M310.411 74.014 C 310.622 74.069,310.967 74.069,311.178 74.014 C 311.389 73.959,311.216 73.914,310.795 73.914 C 310.373 73.914,310.200 73.959,310.411 74.014 M58.904 74.241 C 59.296 74.289,59.937 74.289,60.329 74.241 C 60.721 74.192,60.400 74.152,59.616 74.152 C 58.833 74.152,58.512 74.192,58.904 74.241 M68.877 74.233 C 69.088 74.288,69.433 74.288,69.644 74.233 C 69.855 74.178,69.682 74.133,69.260 74.133 C 68.838 74.133,68.666 74.178,68.877 74.233 M250.466 74.241 C 250.858 74.289,251.499 74.289,251.890 74.241 C 252.282 74.192,251.962 74.152,251.178 74.152 C 250.395 74.152,250.074 74.192,250.466 74.241 M260.438 74.233 C 260.649 74.288,260.995 74.288,261.205 74.233 C 261.416 74.178,261.244 74.133,260.822 74.133 C 260.400 74.133,260.227 74.178,260.438 74.233 M332.877 74.241 C 333.268 74.289,333.910 74.289,334.301 74.241 C 334.693 74.192,334.373 74.152,333.589 74.152 C 332.805 74.152,332.485 74.192,332.877 74.241 M342.849 74.233 C 343.060 74.288,343.405 74.288,343.616 74.233 C 343.827 74.178,343.655 74.133,343.233 74.133 C 342.811 74.133,342.638 74.178,342.849 74.233 M55.619 74.456 C 55.892 74.509,56.286 74.507,56.496 74.452 C 56.705 74.397,56.482 74.354,56.000 74.357 C 55.518 74.359,55.346 74.404,55.619 74.456 M247.181 74.456 C 247.453 74.509,247.848 74.507,248.057 74.452 C 248.267 74.397,248.044 74.354,247.562 74.357 C 247.079 74.359,246.908 74.404,247.181 74.456 M329.592 74.456 C 329.864 74.509,330.259 74.507,330.468 74.452 C 330.678 74.397,330.455 74.354,329.973 74.357 C 329.490 74.359,329.319 74.404,329.592 74.456 M53.096 74.672 C 53.307 74.727,53.652 74.727,53.863 74.672 C 54.074 74.617,53.901 74.571,53.479 74.571 C 53.058 74.571,52.885 74.617,53.096 74.672 M244.658 74.672 C 244.868 74.727,245.214 74.727,245.425 74.672 C 245.636 74.617,245.463 74.571,245.041 74.571 C 244.619 74.571,244.447 74.617,244.658 74.672 M327.068 74.672 C 327.279 74.727,327.625 74.727,327.836 74.672 C 328.047 74.617,327.874 74.571,327.452 74.571 C 327.030 74.571,326.858 74.617,327.068 74.672 M286.247 76.343 C 286.247 76.380,286.567 76.701,286.959 77.055 L 287.671 77.699 287.027 76.986 C 286.427 76.322,286.247 76.173,286.247 76.343 M145.973 76.781 C 145.973 76.819,146.293 77.139,146.685 77.493 L 147.397 78.137 146.754 77.425 C 146.153 76.761,145.973 76.612,145.973 76.781 M123.605 78.630 L 122.849 79.452 123.671 78.697 C 124.436 77.994,124.594 77.808,124.427 77.808 C 124.390 77.808,124.020 78.178,123.605 78.630 M190.748 79.014 C 190.749 79.616,190.792 79.837,190.842 79.504 C 190.893 79.171,190.891 78.678,190.839 78.408 C 190.787 78.138,190.746 78.411,190.748 79.014 M233.707 79.014 C 233.708 79.616,233.751 79.837,233.801 79.504 C 233.851 79.171,233.850 78.678,233.798 78.408 C 233.746 78.138,233.705 78.411,233.707 79.014 M49.147 79.123 C 49.147 79.545,49.192 79.718,49.247 79.507 C 49.302 79.296,49.302 78.951,49.247 78.740 C 49.192 78.529,49.147 78.701,49.147 79.123 M69.794 79.178 L 69.151 79.890 69.863 79.247 C 70.527 78.647,70.676 78.466,70.507 78.466 C 70.469 78.466,70.148 78.786,69.794 79.178 M240.708 79.123 C 240.708 79.545,240.753 79.718,240.809 79.507 C 240.864 79.296,240.864 78.951,240.809 78.740 C 240.753 78.529,240.708 78.701,240.708 79.123 M261.356 79.178 L 260.712 79.890 261.425 79.247 C 261.816 78.893,262.137 78.572,262.137 78.534 C 262.137 78.365,261.956 78.514,261.356 79.178 M323.119 79.123 C 323.119 79.545,323.164 79.718,323.220 79.507 C 323.275 79.296,323.275 78.951,323.220 78.740 C 323.164 78.529,323.119 78.701,323.119 79.123 M343.767 79.178 L 343.123 79.890 343.836 79.247 C 344.227 78.893,344.548 78.572,344.548 78.534 C 344.548 78.365,344.367 78.514,343.767 79.178 M277.429 79.720 C 277.823 79.769,278.414 79.768,278.744 79.718 C 279.073 79.668,278.751 79.628,278.027 79.630 C 277.304 79.631,277.035 79.672,277.429 79.720 M57.041 79.938 C 57.373 79.988,57.915 79.988,58.247 79.938 C 58.578 79.888,58.307 79.847,57.644 79.847 C 56.981 79.847,56.710 79.888,57.041 79.938 M64.159 79.939 C 64.549 79.987,65.239 79.988,65.694 79.941 C 66.148 79.893,65.830 79.854,64.986 79.853 C 64.142 79.852,63.770 79.891,64.159 79.939 M248.603 79.938 C 248.934 79.988,249.477 79.988,249.808 79.938 C 250.140 79.888,249.868 79.847,249.205 79.847 C 248.542 79.847,248.271 79.888,248.603 79.938 M255.721 79.939 C 256.110 79.987,256.801 79.988,257.255 79.941 C 257.710 79.893,257.392 79.854,256.548 79.853 C 255.704 79.852,255.332 79.891,255.721 79.939 M331.014 79.938 C 331.345 79.988,331.888 79.988,332.219 79.938 C 332.551 79.888,332.279 79.847,331.616 79.847 C 330.953 79.847,330.682 79.888,331.014 79.938 M338.132 79.939 C 338.521 79.987,339.212 79.988,339.666 79.941 C 340.121 79.893,339.803 79.854,338.959 79.853 C 338.115 79.852,337.743 79.891,338.132 79.939 M273.159 81.644 C 273.160 82.247,273.203 82.467,273.253 82.134 C 273.304 81.801,273.302 81.308,273.250 81.038 C 273.198 80.769,273.157 81.041,273.159 81.644 M143.562 82.521 C 143.971 82.942,144.354 83.288,144.415 83.288 C 144.475 83.288,144.190 82.942,143.781 82.521 C 143.372 82.099,142.988 81.753,142.928 81.753 C 142.867 81.753,143.153 82.099,143.562 82.521 M186.152 83.507 C 186.152 84.290,186.192 84.611,186.241 84.219 C 186.289 83.827,186.289 83.186,186.241 82.795 C 186.192 82.403,186.152 82.723,186.152 83.507 M229.111 83.507 C 229.111 84.290,229.151 84.611,229.200 84.219 C 229.248 83.827,229.248 83.186,229.200 82.795 C 229.151 82.403,229.111 82.723,229.111 83.507 M165.539 83.288 C 165.539 83.830,165.582 84.052,165.634 83.781 C 165.686 83.510,165.686 83.066,165.634 82.795 C 165.582 82.523,165.539 82.745,165.539 83.288 M190.538 83.836 C 190.539 84.679,190.578 84.998,190.626 84.543 C 190.673 84.088,190.672 83.398,190.624 83.009 C 190.576 82.620,190.537 82.992,190.538 83.836 M208.498 83.288 C 208.498 83.830,208.541 84.052,208.593 83.781 C 208.645 83.510,208.645 83.066,208.593 82.795 C 208.541 82.523,208.498 82.745,208.498 83.288 M233.497 83.836 C 233.498 84.679,233.537 84.998,233.585 84.543 C 233.632 84.088,233.631 83.398,233.583 83.009 C 233.534 82.620,233.496 82.992,233.497 83.836 M289.375 83.288 C 289.375 83.830,289.418 84.052,289.470 83.781 C 289.522 83.510,289.522 83.066,289.470 82.795 C 289.418 82.523,289.375 82.745,289.375 83.288 M51.134 83.726 C 51.134 84.389,51.175 84.660,51.225 84.329 C 51.276 83.997,51.276 83.455,51.225 83.123 C 51.175 82.792,51.134 83.063,51.134 83.726 M242.696 83.726 C 242.696 84.389,242.737 84.660,242.787 84.329 C 242.837 83.997,242.837 83.455,242.787 83.123 C 242.737 82.792,242.696 83.063,242.696 83.726 M325.107 83.726 C 325.107 84.389,325.148 84.660,325.198 84.329 C 325.248 83.997,325.248 83.455,325.198 83.123 C 325.148 82.792,325.107 83.063,325.107 83.726 M55.950 83.726 C 55.950 84.268,55.993 84.490,56.045 84.219 C 56.097 83.948,56.097 83.504,56.045 83.233 C 55.993 82.962,55.950 83.184,55.950 83.726 M247.512 83.726 C 247.512 84.268,247.554 84.490,247.607 84.219 C 247.659 83.948,247.659 83.504,247.607 83.233 C 247.554 82.962,247.512 83.184,247.512 83.726 M329.923 83.726 C 329.923 84.268,329.965 84.490,330.018 84.219 C 330.070 83.948,330.070 83.504,330.018 83.233 C 329.965 82.962,329.923 83.184,329.923 83.726 M272.928 84.384 C 272.928 84.805,272.973 84.978,273.028 84.767 C 273.083 84.556,273.083 84.211,273.028 84.000 C 272.973 83.789,272.928 83.962,272.928 84.384 M268.360 86.904 C 268.361 88.592,268.395 89.253,268.437 88.374 C 268.479 87.495,268.478 86.114,268.436 85.305 C 268.394 84.497,268.360 85.216,268.360 86.904 M165.749 86.137 C 165.749 86.559,165.795 86.732,165.850 86.521 C 165.905 86.310,165.905 85.964,165.850 85.753 C 165.795 85.542,165.749 85.715,165.749 86.137 M208.708 86.137 C 208.708 86.559,208.753 86.732,208.809 86.521 C 208.864 86.310,208.864 85.964,208.809 85.753 C 208.753 85.542,208.708 85.715,208.708 86.137 M150.416 87.014 C 150.416 87.556,150.459 87.778,150.511 87.507 C 150.563 87.236,150.563 86.792,150.511 86.521 C 150.459 86.249,150.416 86.471,150.416 87.014 M185.914 87.014 C 185.914 87.436,185.959 87.608,186.014 87.397 C 186.069 87.186,186.069 86.841,186.014 86.630 C 185.959 86.419,185.914 86.592,185.914 87.014 M228.873 87.014 C 228.873 87.436,228.918 87.608,228.973 87.397 C 229.028 87.186,229.028 86.841,228.973 86.630 C 228.918 86.419,228.873 86.592,228.873 87.014 M190.323 88.986 C 190.323 90.011,190.361 90.430,190.407 89.918 C 190.453 89.405,190.453 88.567,190.407 88.055 C 190.361 87.542,190.323 87.962,190.323 88.986 M233.282 88.986 C 233.282 90.011,233.320 90.430,233.366 89.918 C 233.412 89.405,233.412 88.567,233.366 88.055 C 233.320 87.542,233.282 87.962,233.282 88.986 M55.452 88.159 C 55.452 88.252,55.847 88.329,56.329 88.329 C 56.811 88.329,57.205 88.290,57.205 88.242 C 57.205 88.195,56.811 88.118,56.329 88.072 C 55.847 88.026,55.452 88.065,55.452 88.159 M61.534 88.054 C 62.649 88.093,64.474 88.093,65.589 88.054 C 66.704 88.014,65.792 87.981,63.562 87.981 C 61.332 87.981,60.419 88.014,61.534 88.054 M247.014 88.159 C 247.014 88.252,247.408 88.329,247.890 88.329 C 248.373 88.329,248.767 88.290,248.767 88.242 C 248.767 88.195,248.373 88.118,247.890 88.072 C 247.408 88.026,247.014 88.065,247.014 88.159 M253.096 88.054 C 254.211 88.093,256.036 88.093,257.151 88.054 C 258.266 88.014,257.353 87.981,255.123 87.981 C 252.893 87.981,251.981 88.014,253.096 88.054 M329.425 88.159 C 329.425 88.252,329.819 88.329,330.301 88.329 C 330.784 88.329,331.178 88.290,331.178 88.242 C 331.178 88.195,330.784 88.118,330.301 88.072 C 329.819 88.026,329.425 88.065,329.425 88.159 M335.507 88.054 C 336.622 88.093,338.447 88.093,339.562 88.054 C 340.677 88.014,339.764 87.981,337.534 87.981 C 335.304 87.981,334.392 88.014,335.507 88.054 M51.131 89.315 C 51.133 89.918,51.175 90.138,51.226 89.805 C 51.276 89.472,51.275 88.979,51.223 88.709 C 51.171 88.440,51.130 88.712,51.131 89.315 M242.693 89.315 C 242.694 89.918,242.737 90.138,242.787 89.805 C 242.838 89.472,242.836 88.979,242.784 88.709 C 242.732 88.440,242.691 88.712,242.693 89.315 M325.104 89.315 C 325.105 89.918,325.148 90.138,325.198 89.805 C 325.249 89.472,325.247 88.979,325.195 88.709 C 325.143 88.440,325.102 88.712,325.104 89.315 M146.491 90.630 C 146.492 91.836,146.528 92.301,146.573 91.664 C 146.617 91.027,146.617 90.041,146.572 89.472 C 146.527 88.904,146.490 89.425,146.491 90.630 M185.707 89.973 C 185.708 90.575,185.751 90.796,185.801 90.463 C 185.851 90.130,185.850 89.636,185.798 89.367 C 185.746 89.097,185.705 89.370,185.707 89.973 M228.665 89.973 C 228.667 90.575,228.710 90.796,228.760 90.463 C 228.810 90.130,228.809 89.636,228.757 89.367 C 228.705 89.097,228.664 89.370,228.665 89.973 M150.416 90.740 C 150.416 91.282,150.459 91.504,150.511 91.233 C 150.563 90.962,150.563 90.518,150.511 90.247 C 150.459 89.975,150.416 90.197,150.416 90.740 M97.168 91.945 C 97.169 92.789,97.208 93.107,97.256 92.653 C 97.303 92.198,97.302 91.507,97.254 91.118 C 97.206 90.729,97.167 91.101,97.168 91.945 M298.592 91.945 C 298.593 92.789,298.633 93.107,298.681 92.653 C 298.728 92.198,298.727 91.507,298.679 91.118 C 298.630 90.729,298.591 91.101,298.592 91.945 M268.106 91.836 C 268.106 92.258,268.151 92.430,268.206 92.219 C 268.261 92.008,268.261 91.663,268.206 91.452 C 268.151 91.241,268.106 91.414,268.106 91.836 M272.051 92.274 C 272.051 92.696,272.096 92.868,272.151 92.658 C 272.206 92.447,272.206 92.101,272.151 91.890 C 272.096 91.679,272.051 91.852,272.051 92.274 M126.297 92.712 C 126.297 93.134,126.343 93.307,126.398 93.096 C 126.453 92.885,126.453 92.540,126.398 92.329 C 126.343 92.118,126.297 92.290,126.297 92.712 M190.521 93.479 C 190.523 93.962,190.568 94.133,190.621 93.860 C 190.673 93.588,190.671 93.193,190.616 92.984 C 190.561 92.774,190.519 92.997,190.521 93.479 M233.480 93.479 C 233.482 93.962,233.527 94.133,233.580 93.860 C 233.632 93.588,233.630 93.193,233.575 92.984 C 233.520 92.774,233.477 92.997,233.480 93.479 M56.280 93.311 C 56.795 93.358,57.584 93.357,58.033 93.310 C 58.482 93.263,58.060 93.225,57.096 93.226 C 56.132 93.227,55.764 93.265,56.280 93.311 M247.841 93.311 C 248.357 93.358,249.146 93.357,249.595 93.310 C 250.044 93.263,249.622 93.225,248.658 93.226 C 247.693 93.227,247.326 93.265,247.841 93.311 M330.252 93.311 C 330.768 93.358,331.557 93.357,332.006 93.310 C 332.455 93.263,332.033 93.225,331.068 93.226 C 330.104 93.227,329.737 93.265,330.252 93.311 M63.502 93.528 C 63.891 93.576,64.581 93.577,65.036 93.530 C 65.491 93.482,65.173 93.443,64.329 93.442 C 63.485 93.441,63.113 93.480,63.502 93.528 M92.561 94.575 C 92.562 95.299,92.603 95.568,92.652 95.174 C 92.701 94.780,92.700 94.188,92.650 93.859 C 92.600 93.530,92.560 93.852,92.561 94.575 M255.064 93.528 C 255.453 93.576,256.143 93.577,256.598 93.530 C 257.053 93.482,256.734 93.443,255.890 93.442 C 255.047 93.441,254.675 93.480,255.064 93.528 M293.986 94.575 C 293.987 95.299,294.028 95.568,294.077 95.174 C 294.125 94.780,294.124 94.188,294.074 93.859 C 294.024 93.530,293.984 93.852,293.986 94.575 M337.475 93.528 C 337.864 93.576,338.554 93.577,339.009 93.530 C 339.464 93.482,339.145 93.443,338.301 93.442 C 337.458 93.441,337.085 93.480,337.475 93.528 M160.051 94.247 C 160.051 94.668,160.096 94.841,160.151 94.630 C 160.206 94.419,160.206 94.074,160.151 93.863 C 160.096 93.652,160.051 93.825,160.051 94.247 M203.010 94.247 C 203.010 94.668,203.055 94.841,203.110 94.630 C 203.165 94.419,203.165 94.074,203.110 93.863 C 203.055 93.652,203.010 93.825,203.010 94.247 M79.301 94.191 C 81.026 94.228,83.788 94.228,85.438 94.191 C 87.088 94.154,85.677 94.124,82.301 94.124 C 78.926 94.124,77.576 94.154,79.301 94.191 M271.841 94.904 C 271.841 95.447,271.883 95.668,271.936 95.397 C 271.988 95.126,271.988 94.682,271.936 94.411 C 271.883 94.140,271.841 94.362,271.841 94.904 M121.931 95.890 C 121.932 96.614,121.973 96.883,122.022 96.489 C 122.071 96.095,122.070 95.504,122.020 95.174 C 121.970 94.845,121.930 95.167,121.931 95.890 M54.430 97.096 C 54.430 98.000,54.469 98.370,54.516 97.918 C 54.563 97.466,54.563 96.726,54.516 96.274 C 54.469 95.822,54.430 96.192,54.430 97.096 M245.991 97.096 C 245.991 98.000,246.030 98.370,246.077 97.918 C 246.125 97.466,246.125 96.726,246.077 96.274 C 246.030 95.822,245.991 96.192,245.991 97.096 M328.402 97.096 C 328.402 98.000,328.441 98.370,328.488 97.918 C 328.536 97.466,328.536 96.726,328.488 96.274 C 328.441 95.822,328.402 96.192,328.402 97.096 M159.855 98.192 C 159.855 99.096,159.893 99.466,159.940 99.014 C 159.988 98.562,159.988 97.822,159.940 97.370 C 159.893 96.918,159.855 97.288,159.855 98.192 M202.813 98.192 C 202.813 99.096,202.852 99.466,202.899 99.014 C 202.947 98.562,202.947 97.822,202.899 97.370 C 202.852 96.918,202.813 97.288,202.813 98.192 M185.707 98.301 C 185.708 98.904,185.751 99.125,185.801 98.792 C 185.851 98.458,185.850 97.965,185.798 97.696 C 185.746 97.426,185.705 97.699,185.707 98.301 M228.665 98.301 C 228.667 98.904,228.710 99.125,228.760 98.792 C 228.810 98.458,228.809 97.965,228.757 97.696 C 228.705 97.426,228.664 97.699,228.665 98.301 M78.959 99.220 C 79.170 99.275,79.515 99.275,79.726 99.220 C 79.937 99.164,79.764 99.119,79.342 99.119 C 78.921 99.119,78.748 99.164,78.959 99.220 M128.877 99.836 C 129.286 100.258,129.670 100.603,129.730 100.603 C 129.790 100.603,129.505 100.258,129.096 99.836 C 128.687 99.414,128.303 99.068,128.243 99.068 C 128.183 99.068,128.468 99.414,128.877 99.836 M176.427 99.890 L 175.671 100.712 176.493 99.957 C 177.258 99.254,177.416 99.068,177.248 99.068 C 177.212 99.068,176.842 99.438,176.427 99.890 M219.385 99.890 L 218.630 100.712 219.452 99.957 C 220.217 99.254,220.375 99.068,220.207 99.068 C 220.171 99.068,219.801 99.438,219.385 99.890 M117.535 100.055 C 117.537 100.537,117.582 100.708,117.634 100.436 C 117.687 100.163,117.685 99.769,117.630 99.559 C 117.575 99.350,117.532 99.573,117.535 100.055 M318.959 100.055 C 318.962 100.537,319.007 100.708,319.059 100.436 C 319.112 100.163,319.110 99.769,319.055 99.559 C 319.000 99.350,318.957 99.573,318.959 100.055 M55.822 101.205 C 56.218 101.597,56.666 101.915,56.819 101.911 C 56.971 101.907,56.899 101.796,56.658 101.663 C 56.416 101.530,55.968 101.212,55.661 100.957 C 55.354 100.702,55.427 100.814,55.822 101.205 M247.384 101.205 C 247.779 101.597,248.228 101.915,248.380 101.911 C 248.533 101.907,248.460 101.796,248.219 101.663 C 247.978 101.530,247.530 101.212,247.223 100.957 C 246.916 100.702,246.988 100.814,247.384 101.205 M329.795 101.205 C 330.190 101.597,330.639 101.915,330.791 101.911 C 330.944 101.907,330.871 101.796,330.630 101.663 C 330.389 101.530,329.941 101.212,329.634 100.957 C 329.327 100.702,329.399 100.814,329.795 101.205 M160.055 102.027 C 160.058 102.510,160.103 102.681,160.155 102.408 C 160.207 102.136,160.205 101.741,160.151 101.532 C 160.096 101.322,160.053 101.545,160.055 102.027 M203.014 102.027 C 203.017 102.510,203.061 102.681,203.114 102.408 C 203.166 102.136,203.164 101.741,203.109 101.532 C 203.055 101.322,203.012 101.545,203.014 102.027 M154.133 102.137 C 154.133 102.559,154.178 102.732,154.233 102.521 C 154.288 102.310,154.288 101.964,154.233 101.753 C 154.178 101.542,154.133 101.715,154.133 102.137 M197.092 102.137 C 197.092 102.559,197.137 102.732,197.192 102.521 C 197.247 102.310,197.247 101.964,197.192 101.753 C 197.137 101.542,197.092 101.715,197.092 102.137 M266.791 102.575 C 266.791 102.997,266.836 103.170,266.891 102.959 C 266.946 102.748,266.946 102.403,266.891 102.192 C 266.836 101.981,266.791 102.153,266.791 102.575 M60.110 102.513 C 60.441 102.563,60.984 102.563,61.315 102.513 C 61.647 102.463,61.375 102.422,60.712 102.422 C 60.049 102.422,59.778 102.463,60.110 102.513 M106.027 102.515 C 106.419 102.563,107.060 102.563,107.452 102.515 C 107.844 102.466,107.523 102.426,106.740 102.426 C 105.956 102.426,105.636 102.466,106.027 102.515 M135.178 102.511 C 135.449 102.563,135.893 102.563,136.164 102.511 C 136.436 102.459,136.214 102.416,135.671 102.416 C 135.129 102.416,134.907 102.459,135.178 102.511 M251.671 102.513 C 252.003 102.563,252.545 102.563,252.877 102.513 C 253.208 102.463,252.937 102.422,252.274 102.422 C 251.611 102.422,251.340 102.463,251.671 102.513 M289.370 102.507 C 289.581 102.562,289.926 102.562,290.137 102.507 C 290.348 102.452,290.175 102.407,289.753 102.407 C 289.332 102.407,289.159 102.452,289.370 102.507 M307.452 102.515 C 307.844 102.563,308.485 102.563,308.877 102.515 C 309.268 102.466,308.948 102.426,308.164 102.426 C 307.381 102.426,307.060 102.466,307.452 102.515 M334.082 102.513 C 334.414 102.563,334.956 102.563,335.288 102.513 C 335.619 102.463,335.348 102.422,334.685 102.422 C 334.022 102.422,333.751 102.463,334.082 102.513 M291.781 103.781 C 291.784 104.263,291.829 104.434,291.881 104.162 C 291.933 103.889,291.931 103.495,291.877 103.285 C 291.822 103.076,291.779 103.299,291.781 103.781 M115.288 104.219 C 114.755 104.762,114.369 105.205,114.429 105.205 C 114.490 105.205,114.974 104.762,115.507 104.219 C 116.039 103.677,116.426 103.233,116.365 103.233 C 116.305 103.233,115.820 103.677,115.288 104.219 M316.712 104.219 C 316.180 104.762,315.794 105.205,315.854 105.205 C 315.914 105.205,316.399 104.762,316.932 104.219 C 317.464 103.677,317.850 103.233,317.790 103.233 C 317.730 103.233,317.245 103.677,316.712 104.219 M153.937 105.425 C 153.937 106.329,153.975 106.699,154.023 106.247 C 154.070 105.795,154.070 105.055,154.023 104.603 C 153.975 104.151,153.937 104.521,153.937 105.425 M196.896 105.425 C 196.896 106.329,196.934 106.699,196.982 106.247 C 197.029 105.795,197.029 105.055,196.982 104.603 C 196.934 104.151,196.896 104.521,196.896 105.425 M281.534 105.205 C 282.005 105.688,282.440 106.082,282.500 106.082 C 282.560 106.082,282.224 105.688,281.753 105.205 C 281.283 104.723,280.848 104.329,280.788 104.329 C 280.727 104.329,281.063 104.723,281.534 105.205 M269.318 108.210 C 269.590 108.262,269.985 108.260,270.194 108.205 C 270.404 108.151,270.181 108.108,269.699 108.110 C 269.216 108.113,269.045 108.157,269.318 108.210 M102.313 147.890 C 103.555 147.929,105.528 147.929,106.697 147.889 C 107.866 147.850,106.849 147.818,104.438 147.818 C 102.027 147.818,101.071 147.850,102.313 147.890 M208.274 147.877 C 208.485 147.932,208.830 147.932,209.041 147.877 C 209.252 147.822,209.079 147.777,208.658 147.777 C 208.236 147.777,208.063 147.822,208.274 147.877 M95.178 148.096 C 95.389 148.151,95.734 148.151,95.945 148.096 C 96.156 148.041,95.984 147.996,95.562 147.996 C 95.140 147.996,94.967 148.041,95.178 148.096 M181.370 150.356 C 181.841 150.838,182.275 151.233,182.336 151.233 C 182.396 151.233,182.060 150.838,181.589 150.356 C 181.118 149.874,180.684 149.479,180.623 149.479 C 180.563 149.479,180.899 149.874,181.370 150.356 M296.110 151.521 C 296.110 151.558,296.430 151.879,296.822 152.233 L 297.534 152.877 296.891 152.164 C 296.290 151.500,296.110 151.351,296.110 151.521 M56.384 153.973 C 56.386 154.455,56.431 154.626,56.484 154.354 C 56.536 154.081,56.534 153.686,56.479 153.477 C 56.425 153.267,56.382 153.490,56.384 153.973 M283.126 156.210 C 283.398 156.262,283.793 156.260,284.003 156.205 C 284.212 156.151,283.989 156.108,283.507 156.110 C 283.025 156.113,282.853 156.157,283.126 156.210 M56.380 156.932 C 56.380 157.353,56.425 157.526,56.480 157.315 C 56.535 157.104,56.535 156.759,56.480 156.548 C 56.425 156.337,56.380 156.510,56.380 156.932 M95.945 156.433 C 96.337 156.481,96.978 156.481,97.370 156.433 C 97.762 156.384,97.441 156.344,96.658 156.344 C 95.874 156.344,95.553 156.384,95.945 156.433 M100.990 156.433 C 101.384 156.482,101.976 156.481,102.305 156.431 C 102.635 156.381,102.312 156.341,101.589 156.342 C 100.866 156.343,100.596 156.384,100.990 156.433 M325.866 156.429 C 326.138 156.481,326.533 156.479,326.742 156.425 C 326.952 156.370,326.729 156.327,326.247 156.329 C 325.764 156.332,325.593 156.377,325.866 156.429 M328.384 156.425 C 328.595 156.480,328.940 156.480,329.151 156.425 C 329.362 156.370,329.189 156.325,328.767 156.325 C 328.345 156.325,328.173 156.370,328.384 156.425 M91.705 156.797 C 91.641 156.964,91.627 157.531,91.674 158.057 L 91.759 159.014 91.797 157.878 C 91.831 156.890,91.899 156.731,92.329 156.648 L 92.822 156.553 92.322 156.523 C 92.047 156.507,91.769 156.630,91.705 156.797 M106.356 156.644 C 106.567 156.699,106.912 156.699,107.123 156.644 C 107.334 156.589,107.162 156.544,106.740 156.544 C 106.318 156.544,106.145 156.589,106.356 156.644 M319.405 158.575 C 319.407 159.178,319.449 159.399,319.500 159.065 C 319.550 158.732,319.549 158.239,319.497 157.970 C 319.445 157.700,319.404 157.973,319.405 158.575 M237.151 159.890 C 236.618 160.433,236.232 160.877,236.292 160.877 C 236.353 160.877,236.837 160.433,237.370 159.890 C 237.902 159.348,238.289 158.904,238.228 158.904 C 238.168 158.904,237.683 159.348,237.151 159.890 M205.202 163.068 C 205.202 163.490,205.247 163.663,205.302 163.452 C 205.357 163.241,205.357 162.896,205.302 162.685 C 205.247 162.474,205.202 162.647,205.202 163.068 M269.210 163.726 C 269.210 164.268,269.253 164.490,269.305 164.219 C 269.358 163.948,269.358 163.504,269.305 163.233 C 269.253 162.962,269.210 163.184,269.210 163.726 M48.953 166.795 C 48.953 167.819,48.991 168.238,49.037 167.726 C 49.083 167.214,49.083 166.375,49.037 165.863 C 48.991 165.351,48.953 165.770,48.953 166.795 M291.276 168.932 L 290.521 169.753 291.342 168.998 C 292.107 168.295,292.265 168.110,292.098 168.110 C 292.061 168.110,291.691 168.479,291.276 168.932 M98.904 168.488 C 99.356 168.536,100.096 168.536,100.548 168.488 C 101.000 168.441,100.630 168.402,99.726 168.402 C 98.822 168.402,98.452 168.441,98.904 168.488 M93.098 168.703 C 93.371 168.755,93.766 168.753,93.975 168.699 C 94.185 168.644,93.962 168.601,93.479 168.603 C 92.997 168.606,92.826 168.651,93.098 168.703 M269.210 169.425 C 269.210 169.967,269.253 170.189,269.305 169.918 C 269.358 169.647,269.358 169.203,269.305 168.932 C 269.253 168.660,269.210 168.882,269.210 169.425 M311.941 170.082 C 311.941 170.504,311.986 170.677,312.041 170.466 C 312.097 170.255,312.097 169.910,312.041 169.699 C 311.986 169.488,311.941 169.660,311.941 170.082 M245.535 170.411 C 245.537 170.893,245.582 171.065,245.634 170.792 C 245.687 170.519,245.685 170.125,245.630 169.915 C 245.575 169.706,245.532 169.929,245.535 170.411 M205.206 170.630 C 205.208 171.112,205.253 171.284,205.306 171.011 C 205.358 170.739,205.356 170.344,205.301 170.134 C 205.246 169.925,205.204 170.148,205.206 170.630 M342.866 171.945 C 342.867 172.789,342.907 173.107,342.954 172.653 C 343.002 172.198,343.001 171.507,342.953 171.118 C 342.904 170.729,342.865 171.101,342.866 171.945 M348.763 171.178 C 348.763 171.600,348.808 171.773,348.863 171.562 C 348.919 171.351,348.919 171.005,348.863 170.795 C 348.808 170.584,348.763 170.756,348.763 171.178 M283.566 171.556 C 283.960 171.605,284.551 171.604,284.881 171.554 C 285.210 171.504,284.888 171.464,284.164 171.465 C 283.441 171.466,283.172 171.507,283.566 171.556 M236.770 174.623 C 237.103 174.673,237.596 174.672,237.866 174.620 C 238.136 174.568,237.863 174.527,237.260 174.528 C 236.658 174.530,236.437 174.573,236.770 174.623 M231.178 174.840 C 231.449 174.892,231.893 174.892,232.164 174.840 C 232.436 174.787,232.214 174.745,231.671 174.745 C 231.129 174.745,230.907 174.787,231.178 174.840 M92.438 176.378 C 92.830 176.426,93.471 176.426,93.863 176.378 C 94.255 176.329,93.934 176.289,93.151 176.289 C 92.367 176.289,92.047 176.329,92.438 176.378 M102.195 176.596 C 102.528 176.646,103.021 176.645,103.291 176.593 C 103.560 176.541,103.288 176.499,102.685 176.501 C 102.082 176.503,101.862 176.545,102.195 176.596 M177.604 181.699 C 177.604 182.482,177.644 182.803,177.693 182.411 C 177.741 182.019,177.741 181.378,177.693 180.986 C 177.644 180.595,177.604 180.915,177.604 181.699 M53.993 182.247 C 53.994 183.211,54.032 183.578,54.079 183.063 C 54.125 182.547,54.124 181.758,54.077 181.309 C 54.030 180.860,53.992 181.282,53.993 182.247 M317.228 182.904 C 317.228 183.989,317.265 184.461,317.311 183.952 C 317.357 183.443,317.357 182.555,317.312 181.979 C 317.267 181.403,317.229 181.819,317.228 182.904 M229.863 183.172 C 230.255 183.221,230.896 183.221,231.288 183.172 C 231.679 183.124,231.359 183.084,230.575 183.084 C 229.792 183.084,229.471 183.124,229.863 183.172 M177.594 184.110 C 177.594 184.652,177.637 184.874,177.689 184.603 C 177.741 184.332,177.741 183.888,177.689 183.616 C 177.637 183.345,177.594 183.567,177.594 184.110 M239.624 183.395 C 240.322 183.439,241.407 183.438,242.035 183.394 C 242.664 183.350,242.093 183.314,240.767 183.315 C 239.441 183.315,238.927 183.351,239.624 183.395 M291.945 185.534 C 292.354 185.956,292.738 186.301,292.798 186.301 C 292.859 186.301,292.573 185.956,292.164 185.534 C 291.755 185.112,291.372 184.767,291.311 184.767 C 291.251 184.767,291.536 185.112,291.945 185.534 M131.068 185.973 C 131.477 186.395,131.861 186.740,131.922 186.740 C 131.982 186.740,131.697 186.395,131.288 185.973 C 130.879 185.551,130.495 185.205,130.435 185.205 C 130.374 185.205,130.660 185.551,131.068 185.973 M46.736 189.151 C 46.736 189.573,46.781 189.745,46.836 189.534 C 46.891 189.323,46.891 188.978,46.836 188.767 C 46.781 188.556,46.736 188.729,46.736 189.151 M114.023 190.466 C 114.023 190.888,114.069 191.060,114.124 190.849 C 114.179 190.638,114.179 190.293,114.124 190.082 C 114.069 189.871,114.023 190.044,114.023 190.466 M266.805 192.877 C 266.805 193.540,266.846 193.811,266.897 193.479 C 266.947 193.148,266.947 192.605,266.897 192.274 C 266.846 191.942,266.805 192.214,266.805 192.877 M226.681 193.753 C 226.681 194.175,226.726 194.348,226.781 194.137 C 226.836 193.926,226.836 193.581,226.781 193.370 C 226.726 193.159,226.681 193.332,226.681 193.753 M180.215 193.973 C 180.215 194.395,180.260 194.567,180.315 194.356 C 180.371 194.145,180.371 193.800,180.315 193.589 C 180.260 193.378,180.215 193.551,180.215 193.973 M57.260 198.507 C 57.471 198.562,57.816 198.562,58.027 198.507 C 58.238 198.452,58.066 198.407,57.644 198.407 C 57.222 198.407,57.049 198.452,57.260 198.507 M62.082 198.507 C 62.293 198.562,62.638 198.562,62.849 198.507 C 63.060 198.452,62.888 198.407,62.466 198.407 C 62.044 198.407,61.871 198.452,62.082 198.507 M121.382 244.766 C 122.624 244.805,124.596 244.805,125.765 244.766 C 126.934 244.727,125.918 244.695,123.507 244.695 C 121.096 244.695,120.139 244.727,121.382 244.766 M141.098 244.758 C 141.371 244.810,141.766 244.808,141.975 244.753 C 142.185 244.698,141.962 244.656,141.479 244.658 C 140.997 244.660,140.826 244.705,141.098 244.758 M244.000 244.754 C 244.211 244.809,244.556 244.809,244.767 244.754 C 244.978 244.699,244.805 244.654,244.384 244.654 C 243.962 244.654,243.789 244.699,244.000 244.754 M304.605 244.758 C 304.878 244.810,305.272 244.808,305.482 244.753 C 305.692 244.698,305.468 244.656,304.986 244.658 C 304.504 244.660,304.333 244.705,304.605 244.758 M335.509 244.758 C 335.782 244.810,336.177 244.808,336.386 244.753 C 336.596 244.698,336.373 244.656,335.890 244.658 C 335.408 244.660,335.237 244.705,335.509 244.758 M114.247 244.973 C 114.458 245.028,114.803 245.028,115.014 244.973 C 115.225 244.918,115.052 244.873,114.630 244.873 C 114.208 244.873,114.036 244.918,114.247 244.973 M217.096 247.233 C 217.567 247.715,218.001 248.110,218.062 248.110 C 218.122 248.110,217.786 247.715,217.315 247.233 C 216.844 246.751,216.410 246.356,216.349 246.356 C 216.289 246.356,216.625 246.751,217.096 247.233 M179.798 252.164 C 179.799 253.008,179.839 253.327,179.886 252.872 C 179.933 252.417,179.933 251.727,179.884 251.338 C 179.836 250.948,179.797 251.321,179.798 252.164 M196.890 252.164 C 196.891 252.888,196.932 253.157,196.981 252.763 C 197.030 252.369,197.029 251.777,196.979 251.448 C 196.929 251.119,196.889 251.441,196.890 252.164 M70.961 253.306 C 71.234 253.358,71.629 253.356,71.838 253.301 C 72.048 253.246,71.825 253.204,71.342 253.206 C 70.860 253.208,70.689 253.253,70.961 253.306 M73.479 253.302 C 73.690 253.357,74.036 253.357,74.247 253.302 C 74.458 253.247,74.285 253.202,73.863 253.202 C 73.441 253.202,73.268 253.247,73.479 253.302 M115.014 253.309 C 115.405 253.358,116.047 253.358,116.438 253.309 C 116.830 253.261,116.510 253.221,115.726 253.221 C 114.942 253.221,114.622 253.261,115.014 253.309 M120.059 253.310 C 120.453 253.358,121.044 253.357,121.374 253.307 C 121.703 253.257,121.381 253.217,120.658 253.219 C 119.934 253.220,119.665 253.261,120.059 253.310 M110.774 253.674 C 110.710 253.841,110.696 254.408,110.742 254.934 L 110.828 255.890 110.866 254.755 C 110.899 253.766,110.968 253.607,111.397 253.525 L 111.890 253.430 111.390 253.400 C 111.115 253.383,110.838 253.507,110.774 253.674 M125.425 253.521 C 125.636 253.576,125.981 253.576,126.192 253.521 C 126.403 253.466,126.230 253.421,125.808 253.421 C 125.386 253.421,125.214 253.466,125.425 253.521 M64.501 255.452 C 64.503 256.055,64.545 256.275,64.596 255.942 C 64.646 255.609,64.645 255.116,64.593 254.846 C 64.541 254.577,64.499 254.849,64.501 255.452 M267.058 257.808 L 266.192 258.740 267.123 257.873 C 267.990 257.068,268.156 256.877,267.990 256.877 C 267.954 256.877,267.535 257.296,267.058 257.808 M240.928 259.945 C 240.928 260.367,240.973 260.540,241.028 260.329 C 241.083 260.118,241.083 259.773,241.028 259.562 C 240.973 259.351,240.928 259.523,240.928 259.945 M189.425 260.274 C 189.428 260.756,189.472 260.928,189.525 260.655 C 189.577 260.382,189.575 259.988,189.520 259.778 C 189.466 259.569,189.423 259.792,189.425 260.274 M301.640 260.384 C 301.640 260.805,301.685 260.978,301.740 260.767 C 301.795 260.556,301.795 260.211,301.740 260.000 C 301.685 259.789,301.640 259.962,301.640 260.384 M172.106 262.137 C 172.106 262.559,172.151 262.732,172.206 262.521 C 172.261 262.310,172.261 261.964,172.206 261.753 C 172.151 261.542,172.106 261.715,172.106 262.137 M325.984 264.711 C 327.166 264.751,329.040 264.751,330.148 264.711 C 331.257 264.671,330.290 264.639,328.000 264.639 C 325.710 264.640,324.802 264.672,325.984 264.711 M315.781 264.922 C 316.052 264.974,316.496 264.974,316.767 264.922 C 317.038 264.870,316.816 264.827,316.274 264.827 C 315.732 264.827,315.510 264.870,315.781 264.922 M311.068 265.137 C 311.279 265.193,311.625 265.193,311.836 265.137 C 312.047 265.082,311.874 265.037,311.452 265.037 C 311.030 265.037,310.858 265.082,311.068 265.137 M117.973 265.365 C 118.425 265.412,119.164 265.412,119.616 265.365 C 120.068 265.318,119.699 265.279,118.795 265.279 C 117.890 265.279,117.521 265.318,117.973 265.365 M112.167 265.580 C 112.440 265.632,112.834 265.630,113.044 265.575 C 113.253 265.520,113.030 265.477,112.548 265.480 C 112.066 265.482,111.894 265.527,112.167 265.580 M57.037 266.959 C 57.037 267.381,57.082 267.553,57.137 267.342 C 57.193 267.132,57.193 266.786,57.137 266.575 C 57.082 266.364,57.037 266.537,57.037 266.959 M189.430 267.178 C 189.430 267.721,189.472 267.942,189.525 267.671 C 189.577 267.400,189.577 266.956,189.525 266.685 C 189.472 266.414,189.430 266.636,189.430 267.178 M240.932 267.507 C 240.934 267.989,240.979 268.160,241.032 267.888 C 241.084 267.615,241.082 267.221,241.027 267.011 C 240.972 266.802,240.930 267.025,240.932 267.507 M87.962 268.822 C 87.963 269.666,88.003 269.984,88.050 269.529 C 88.098 269.075,88.097 268.384,88.049 267.995 C 88.000 267.606,87.961 267.978,87.962 268.822 M93.859 268.055 C 93.859 268.477,93.904 268.649,93.959 268.438 C 94.014 268.227,94.014 267.882,93.959 267.671 C 93.904 267.460,93.859 267.633,93.859 268.055 M111.507 273.254 C 111.899 273.303,112.540 273.303,112.932 273.254 C 113.323 273.206,113.003 273.166,112.219 273.166 C 111.436 273.166,111.115 273.206,111.507 273.254 M121.263 273.472 C 121.596 273.523,122.090 273.521,122.359 273.469 C 122.629 273.417,122.356 273.376,121.753 273.378 C 121.151 273.379,120.930 273.422,121.263 273.472 M312.822 273.466 C 313.033 273.521,313.378 273.521,313.589 273.466 C 313.800 273.411,313.627 273.366,313.205 273.366 C 312.784 273.366,312.611 273.411,312.822 273.466 M324.000 273.466 C 324.211 273.521,324.556 273.521,324.767 273.466 C 324.978 273.411,324.805 273.366,324.384 273.366 C 323.962 273.366,323.789 273.411,324.000 273.466 M328.493 273.689 C 328.764 273.741,329.208 273.741,329.479 273.689 C 329.751 273.637,329.529 273.594,328.986 273.594 C 328.444 273.594,328.222 273.637,328.493 273.689 M255.174 275.068 C 255.174 275.490,255.219 275.663,255.274 275.452 C 255.330 275.241,255.330 274.896,255.274 274.685 C 255.219 274.474,255.174 274.647,255.174 275.068 M307.350 275.616 C 307.352 276.219,307.395 276.440,307.445 276.107 C 307.495 275.773,307.494 275.280,307.442 275.011 C 307.390 274.741,307.349 275.014,307.350 275.616 M213.330 278.575 C 213.330 279.359,213.370 279.679,213.419 279.288 C 213.467 278.896,213.467 278.255,213.419 277.863 C 213.370 277.471,213.330 277.792,213.330 278.575 M62.324 279.781 C 62.324 280.866,62.361 281.337,62.407 280.829 C 62.453 280.320,62.453 279.432,62.408 278.856 C 62.363 278.280,62.325 278.696,62.324 279.781 M154.571 279.233 C 154.571 279.655,154.617 279.827,154.672 279.616 C 154.727 279.405,154.727 279.060,154.672 278.849 C 154.617 278.638,154.571 278.811,154.571 279.233 M194.481 279.890 C 194.481 280.674,194.521 280.995,194.570 280.603 C 194.618 280.211,194.618 279.570,194.570 279.178 C 194.521 278.786,194.481 279.107,194.481 279.890 M307.353 280.329 C 307.353 280.992,307.394 281.263,307.445 280.932 C 307.495 280.600,307.495 280.058,307.445 279.726 C 307.394 279.395,307.353 279.666,307.353 280.329 M213.320 280.986 C 213.320 281.529,213.363 281.751,213.415 281.479 C 213.467 281.208,213.467 280.764,213.415 280.493 C 213.363 280.222,213.320 280.444,213.320 280.986 M265.863 282.370 C 265.863 282.408,266.184 282.728,266.575 283.082 L 267.288 283.726 266.644 283.014 C 266.044 282.350,265.863 282.201,265.863 282.370 M133.092 287.342 C 133.092 287.764,133.137 287.937,133.192 287.726 C 133.247 287.515,133.247 287.170,133.192 286.959 C 133.137 286.748,133.092 286.921,133.092 287.342 M196.384 287.630 C 196.384 287.668,196.704 287.988,197.096 288.343 L 197.808 288.986 197.164 288.274 C 196.564 287.610,196.384 287.461,196.384 287.630 M288.976 289.370 L 288.110 290.301 289.041 289.435 C 289.907 288.629,290.073 288.438,289.907 288.438 C 289.872 288.438,289.453 288.858,288.976 289.370 M215.941 290.849 C 215.941 291.271,215.986 291.444,216.041 291.233 C 216.097 291.022,216.097 290.677,216.041 290.466 C 215.986 290.255,215.941 290.427,215.941 290.849 M308.215 291.288 C 308.215 291.710,308.260 291.882,308.315 291.671 C 308.371 291.460,308.371 291.115,308.315 290.904 C 308.260 290.693,308.215 290.866,308.215 291.288 " stroke="none" fill="#1b436b" fill-rule="evenodd"></path><path id="path1" d="M163.757 74.218 C 160.828 75.677,157.732 83.067,155.642 93.589 C 153.328 105.234,153.464 108.251,156.292 107.995 C 159.773 107.679,160.366 106.692,160.032 101.760 C 159.507 93.989,161.334 82.839,163.367 81.415 C 164.808 80.406,165.497 81.286,165.735 84.439 C 166.698 97.206,168.773 101.927,173.190 101.406 C 176.613 101.002,178.377 98.279,181.802 88.118 C 183.773 82.270,184.158 81.534,185.248 81.534 C 186.334 81.534,186.395 82.021,185.997 87.487 C 184.821 103.617,187.025 110.271,192.602 107.426 C 194.831 106.288,195.238 104.618,193.715 102.863 C 190.933 99.656,190.011 94.369,190.491 84.384 C 190.932 75.220,190.454 73.647,187.226 73.645 C 183.648 73.642,182.307 75.642,178.740 86.304 C 174.426 99.197,172.334 97.865,170.206 80.870 C 169.911 78.516,169.559 76.296,169.423 75.938 C 168.608 73.787,166.130 73.035,163.757 74.218 M206.716 74.218 C 203.787 75.677,200.691 83.067,198.601 93.589 C 196.287 105.234,196.423 108.251,199.251 107.995 C 202.732 107.679,203.324 106.692,202.991 101.760 C 202.465 93.989,204.293 82.839,206.326 81.415 C 207.767 80.406,208.456 81.286,208.694 84.439 C 209.657 97.206,211.732 101.927,216.149 101.406 C 219.572 101.002,221.336 98.279,224.761 88.118 C 226.732 82.270,227.117 81.534,228.207 81.534 C 229.293 81.534,229.354 82.021,228.956 87.487 C 227.780 103.617,229.984 110.271,235.561 107.426 C 237.790 106.288,238.197 104.618,236.674 102.863 C 233.892 99.656,232.970 94.369,233.450 84.384 C 233.891 75.220,233.412 73.647,230.185 73.645 C 226.607 73.642,225.266 75.642,221.699 86.304 C 217.384 99.197,215.293 97.865,213.165 80.870 C 212.870 78.516,212.517 76.296,212.382 75.938 C 211.567 73.787,209.089 73.035,206.716 74.218 M108.652 74.095 C 92.388 76.349,86.290 102.562,100.847 107.642 C 107.337 109.906,117.479 105.294,117.479 100.078 C 117.479 98.318,116.596 97.968,115.070 99.123 C 114.552 99.515,113.822 100.068,113.448 100.352 C 106.034 105.975,96.492 100.499,97.185 91.019 C 97.829 82.205,105.972 77.116,113.425 80.870 C 115.420 81.875,115.489 81.886,116.544 81.386 C 118.093 80.651,119.129 78.156,118.505 76.663 C 117.653 74.624,113.204 73.464,108.652 74.095 M133.615 74.097 C 130.290 74.557,126.239 76.358,124.105 78.324 C 121.057 81.134,121.296 86.229,124.407 84.745 C 125.297 84.321,125.291 84.296,124.594 85.544 C 120.124 93.541,121.712 103.901,127.873 106.934 C 136.449 111.156,146.958 105.424,149.678 95.041 C 153.180 81.668,146.054 72.377,133.615 74.097 M276.384 74.012 C 270.554 74.612,266.119 77.344,266.051 80.379 C 266.010 82.207,266.187 82.486,267.292 82.335 L 268.236 82.205 268.395 84.116 C 268.603 86.608,268.374 91.121,267.831 95.233 C 266.218 107.448,266.428 108.464,270.471 107.985 C 273.583 107.617,274.957 105.584,273.439 103.595 C 271.886 101.561,271.889 101.574,271.903 96.986 C 271.912 93.900,272.068 91.540,272.505 87.867 C 272.830 85.142,273.097 82.430,273.099 81.840 C 273.104 80.336,273.184 80.274,275.626 79.860 C 281.635 78.842,285.616 81.456,284.709 85.825 C 284.170 88.422,282.150 89.814,278.496 90.108 C 273.989 90.470,273.692 91.518,276.484 97.205 C 280.408 105.200,284.745 108.953,288.793 107.859 C 290.592 107.373,291.715 105.849,291.718 103.890 C 291.720 102.523,291.614 102.445,289.742 102.436 C 286.792 102.421,284.106 100.565,281.192 96.530 C 279.611 94.339,279.612 94.446,281.149 93.958 C 284.783 92.803,288.092 89.454,288.977 86.036 C 290.901 78.602,285.149 73.111,276.384 74.012 M310.076 74.095 C 293.813 76.349,287.714 102.562,302.271 107.642 C 308.761 109.906,318.904 105.294,318.904 100.078 C 318.904 98.318,318.021 97.968,316.494 99.123 C 315.977 99.515,315.247 100.068,314.872 100.352 C 307.459 105.975,297.917 100.499,298.610 91.019 C 299.254 82.205,307.397 77.116,314.850 80.870 C 316.845 81.875,316.914 81.886,317.969 81.386 C 319.517 80.651,320.553 78.156,319.930 76.663 C 319.078 74.624,314.629 73.464,310.076 74.095 M59.726 74.230 C 50.781 74.669,49.518 75.264,49.309 79.141 C 49.216 80.850,49.229 80.877,50.172 80.877 L 51.029 80.877 51.188 82.782 C 51.434 85.733,51.162 91.378,50.610 94.795 C 49.073 104.308,50.447 107.209,56.902 108.072 C 65.270 109.190,72.822 105.662,70.869 101.547 C 70.268 100.279,69.789 100.212,67.689 101.104 C 65.290 102.123,63.744 102.423,60.822 102.434 C 55.720 102.455,54.065 100.821,54.437 96.131 C 54.695 92.891,54.158 93.129,60.808 93.301 L 65.863 93.431 66.497 92.798 C 67.818 91.479,68.578 88.945,67.838 88.330 C 67.590 88.125,66.052 88.080,61.478 88.143 C 57.114 88.204,55.470 88.160,55.538 87.984 C 55.589 87.850,55.755 86.023,55.907 83.925 C 56.063 81.761,56.285 80.034,56.420 79.936 C 56.551 79.840,59.455 79.791,62.874 79.826 L 69.090 79.890 70.045 78.835 C 71.313 77.435,71.798 75.735,71.174 74.882 C 70.669 74.190,65.971 73.923,59.726 74.230 M251.288 74.230 C 242.342 74.669,241.080 75.264,240.870 79.141 C 240.778 80.850,240.791 80.877,241.734 80.877 L 242.591 80.877 242.749 82.782 C 242.995 85.733,242.724 91.378,242.172 94.795 C 240.634 104.308,242.009 107.209,248.464 108.072 C 256.831 109.190,264.384 105.662,262.431 101.547 C 261.829 100.279,261.351 100.212,259.250 101.104 C 256.851 102.123,255.306 102.423,252.384 102.434 C 247.282 102.455,245.627 100.821,245.999 96.131 C 246.256 92.891,245.720 93.129,252.369 93.301 L 257.425 93.431 258.059 92.798 C 259.380 91.479,260.140 88.945,259.399 88.330 C 259.152 88.125,257.613 88.080,253.039 88.143 C 248.676 88.204,247.032 88.160,247.099 87.984 C 247.151 87.850,247.317 86.023,247.468 83.925 C 247.625 81.761,247.847 80.034,247.982 79.936 C 248.112 79.840,251.016 79.791,254.435 79.826 L 260.652 79.890 261.607 78.835 C 262.875 77.435,263.360 75.735,262.736 74.882 C 262.230 74.190,257.533 73.923,251.288 74.230 M333.699 74.230 C 324.753 74.669,323.491 75.264,323.281 79.141 C 323.189 80.850,323.202 80.877,324.145 80.877 L 325.002 80.877 325.160 82.782 C 325.406 85.733,325.135 91.378,324.583 94.795 C 323.045 104.308,324.420 107.209,330.875 108.072 C 339.242 109.190,346.795 105.662,344.842 101.547 C 344.240 100.279,343.762 100.212,341.661 101.104 C 339.262 102.123,337.717 102.423,334.795 102.434 C 329.693 102.455,328.038 100.821,328.410 96.131 C 328.667 92.891,328.131 93.129,334.780 93.301 L 339.836 93.431 340.470 92.798 C 341.791 91.479,342.551 88.945,341.810 88.330 C 341.563 88.125,340.024 88.080,335.450 88.143 C 331.087 88.204,329.443 88.160,329.510 87.984 C 329.562 87.850,329.728 86.023,329.879 83.925 C 330.036 81.761,330.258 80.034,330.393 79.936 C 330.523 79.840,333.427 79.791,336.846 79.826 L 343.062 79.890 344.018 78.835 C 345.286 77.435,345.771 75.735,345.147 74.882 C 344.641 74.190,339.944 73.923,333.699 74.230 M139.945 80.260 C 144.280 81.663,146.623 85.300,146.623 90.630 C 146.623 97.694,142.216 102.435,135.671 102.415 C 126.460 102.386,123.450 92.671,129.463 82.380 C 130.865 79.980,135.919 78.958,139.945 80.260 M75.639 94.662 C 74.903 95.399,74.477 98.879,75.053 99.455 C 75.125 99.526,76.193 99.468,77.427 99.326 C 78.661 99.183,81.299 99.065,83.288 99.064 C 88.298 99.062,88.606 98.873,88.641 95.781 L 88.658 94.356 82.360 94.298 C 76.392 94.243,76.039 94.262,75.639 94.662 M244.603 147.439 C 237.004 148.711,228.559 159.300,223.526 173.863 C 223.045 175.255,222.970 175.350,222.247 175.466 C 218.222 176.113,215.138 182.170,217.851 184.101 C 219.400 185.204,219.549 187.354,218.408 192.110 C 217.630 195.351,217.590 196.829,218.261 197.545 C 219.583 198.955,224.191 198.111,225.834 196.158 C 226.546 195.312,226.480 195.984,226.511 189.370 C 226.526 186.296,226.617 183.612,226.714 183.405 C 226.878 183.056,227.486 183.039,235.178 183.166 C 244.492 183.320,244.300 183.345,245.681 181.777 L 246.524 180.818 246.679 182.057 C 247.278 186.850,249.800 193.908,251.788 196.356 C 254.164 199.281,258.887 198.758,261.062 195.330 C 262.262 193.437,262.059 192.622,259.781 190.182 C 254.457 184.481,251.648 173.804,251.609 159.123 C 251.582 148.862,250.170 146.507,244.603 147.439 M138.654 147.740 C 132.330 148.474,125.493 151.746,122.529 155.458 C 119.177 159.656,120.530 165.690,124.384 163.726 C 124.856 163.485,125.262 163.288,125.285 163.288 C 125.308 163.288,124.848 164.249,124.263 165.425 C 118.124 177.759,120.276 191.800,128.997 196.314 C 142.918 203.521,159.426 193.436,162.513 175.838 C 165.755 157.359,155.889 145.740,138.654 147.740 M281.425 147.642 C 273.503 148.637,267.036 151.885,265.994 155.393 C 265.018 158.679,265.951 160.859,268.026 160.144 L 268.922 159.835 269.091 160.630 C 269.184 161.067,269.250 163.989,269.237 167.123 C 269.213 173.056,269.011 175.361,267.721 184.438 C 266.066 196.090,267.082 199.010,272.490 198.146 C 277.407 197.361,279.321 194.240,276.690 191.298 C 274.005 188.294,273.743 183.186,275.522 168.548 C 275.895 165.482,276.598 158.252,276.602 157.451 C 276.605 156.745,282.544 155.953,285.401 156.277 C 290.831 156.894,293.463 159.230,293.475 163.444 C 293.488 168.618,290.398 171.189,283.673 171.597 C 277.691 171.961,277.185 173.731,280.869 181.397 C 286.484 193.078,291.940 198.411,297.955 198.095 C 301.698 197.899,304.000 195.453,304.000 191.673 C 304.000 189.910,303.740 189.709,301.547 189.778 C 296.491 189.936,292.587 187.215,287.698 180.127 L 286.236 178.007 287.502 177.644 C 301.554 173.616,305.125 155.494,293.041 149.536 C 290.013 148.043,284.889 147.208,281.425 147.642 M324.384 147.749 C 317.110 148.571,310.680 151.507,309.236 154.665 C 307.856 157.684,308.683 160.416,310.756 159.685 L 311.668 159.363 311.834 159.955 C 311.925 160.281,311.995 163.260,311.989 166.575 C 311.976 172.962,311.827 174.775,310.547 184.110 C 308.960 195.683,311.003 198.426,321.205 198.423 C 336.842 198.418,347.397 188.248,348.724 171.908 C 350.049 155.588,340.336 145.947,324.384 147.749 M50.474 148.044 C 48.524 148.653,46.172 150.472,45.892 151.586 C 45.788 152.000,46.040 152.711,46.878 154.372 C 49.558 159.682,49.743 167.565,47.542 182.685 C 45.714 195.242,48.259 198.413,60.164 198.414 C 70.708 198.415,77.266 195.305,77.219 190.326 C 77.189 187.147,76.269 186.743,72.174 188.108 C 68.202 189.431,66.586 189.689,62.247 189.694 C 53.638 189.702,52.895 187.802,54.924 170.959 C 56.467 158.151,56.685 154.589,56.128 151.323 C 55.579 148.108,53.720 147.029,50.474 148.044 M174.678 148.063 C 171.461 149.055,170.712 151.220,171.756 156.519 C 173.023 162.950,172.797 170.339,170.957 182.685 C 168.880 196.623,169.216 198.268,174.120 198.196 C 178.840 198.128,181.356 195.227,179.644 191.828 C 177.330 187.235,177.085 183.030,178.424 170.849 C 179.466 161.367,179.639 161.146,182.937 165.084 C 188.851 172.147,194.729 181.935,198.592 191.153 C 200.998 196.893,202.272 198.137,205.745 198.137 C 209.872 198.137,211.360 195.295,210.740 188.594 C 210.131 182.010,210.321 178.145,211.853 166.027 C 213.279 154.747,213.060 150.577,210.937 148.582 C 209.340 147.082,204.612 148.364,203.177 150.686 C 202.567 151.674,202.626 152.327,203.503 154.323 C 205.593 159.076,205.945 169.766,204.371 180.712 C 203.939 183.717,203.888 183.890,203.430 183.890 C 202.976 183.890,203.012 183.954,201.115 179.751 C 197.631 172.030,192.580 163.976,186.117 155.836 C 180.357 148.579,178.061 147.020,174.678 148.063 M95.123 148.092 C 83.779 148.843,82.627 149.352,81.631 154.051 C 80.950 157.266,81.253 158.165,82.956 157.974 C 84.273 157.825,84.276 157.843,84.265 166.356 C 84.257 173.133,84.242 173.360,83.463 178.630 C 81.228 193.756,83.134 197.369,93.877 198.364 C 106.132 199.499,116.145 194.555,113.656 188.598 C 112.830 186.621,111.954 186.386,109.529 187.491 C 106.153 189.030,102.497 189.806,98.630 189.805 C 90.629 189.804,88.350 186.973,89.450 178.401 L 89.694 176.498 91.148 176.382 C 91.948 176.318,95.512 176.343,99.068 176.439 C 106.342 176.633,106.431 176.620,107.622 175.116 C 109.081 173.274,109.922 170.352,109.321 169.213 C 108.839 168.300,107.942 168.237,99.194 168.510 C 94.743 168.649,91.056 168.718,91.000 168.662 C 90.944 168.606,91.024 167.300,91.176 165.760 C 91.329 164.219,91.515 161.529,91.590 159.781 L 91.726 156.603 94.904 156.406 C 96.979 156.278,100.124 156.297,103.967 156.462 C 110.744 156.752,111.052 156.697,112.483 154.934 C 114.657 152.253,115.004 149.396,113.270 148.449 C 112.572 148.068,99.400 147.809,95.123 148.092 M146.521 156.807 C 153.483 158.746,157.002 163.890,157.025 172.164 C 157.053 181.769,152.477 187.885,144.058 189.496 C 131.597 191.880,124.125 181.073,128.689 167.264 C 129.690 164.234,132.485 158.756,133.221 158.380 C 137.030 156.435,142.754 155.758,146.521 156.807 M332.055 156.822 C 337.365 158.114,341.359 162.178,342.501 167.452 C 345.144 179.657,336.905 189.583,324.055 189.676 C 316.700 189.730,316.095 187.613,318.360 169.753 C 318.788 166.378,319.209 162.236,319.295 160.548 L 319.452 157.479 320.970 157.100 C 324.446 156.232,329.145 156.115,332.055 156.822 M244.839 157.497 L 245.370 158.063 245.512 165.372 C 245.591 169.391,245.720 173.066,245.800 173.538 L 245.944 174.395 240.172 174.539 C 236.997 174.618,233.200 174.748,231.734 174.827 L 229.068 174.970 229.920 172.625 C 233.367 163.128,238.514 156.932,242.956 156.932 C 244.125 156.932,244.379 157.008,244.839 157.497 M69.479 244.626 C 62.206 245.448,55.776 248.383,54.332 251.541 C 52.951 254.561,53.779 257.293,55.852 256.561 L 56.764 256.240 56.930 256.832 C 57.021 257.158,57.091 260.137,57.084 263.452 C 57.072 269.838,56.923 271.652,55.643 280.986 C 54.056 292.559,56.099 295.303,66.301 295.300 C 81.938 295.295,92.493 285.125,93.820 268.785 C 95.145 252.464,85.432 242.824,69.479 244.626 M279.478 244.612 C 265.945 246.313,255.976 258.438,255.412 273.885 C 254.963 286.180,260.794 294.017,271.302 295.239 C 280.308 296.286,290.933 290.578,292.120 284.055 C 292.680 280.975,290.796 279.771,288.431 281.699 C 283.823 285.454,280.798 286.685,276.175 286.685 C 257.922 286.685,257.063 256.938,275.216 253.465 C 279.808 252.587,283.320 253.235,287.777 255.783 C 290.765 257.491,295.065 252.276,293.685 248.617 C 292.552 245.611,286.071 243.784,279.478 244.612 M174.904 244.808 C 171.090 245.972,169.591 248.298,170.767 251.225 C 175.656 263.384,167.686 285.093,158.012 285.970 C 155.093 286.235,155.002 286.069,154.616 279.823 C 153.623 263.733,150.471 251.839,145.870 246.816 C 143.060 243.748,137.928 244.326,136.097 247.916 C 135.174 249.723,135.399 250.214,138.642 253.487 C 144.334 259.228,147.862 270.556,148.822 286.168 C 149.226 292.741,150.230 294.812,153.325 295.454 C 164.015 297.673,176.661 279.567,179.396 258.126 C 180.655 248.257,179.063 243.538,174.904 244.808 M190.795 244.998 C 188.590 245.763,186.521 247.636,186.521 248.864 C 186.521 249.195,186.957 250.271,187.490 251.254 C 189.916 255.724,190.278 264.234,188.578 276.822 C 187.317 286.155,187.136 287.775,187.122 289.863 C 187.094 294.139,188.756 295.654,192.773 295.013 C 197.315 294.287,199.454 290.921,197.039 288.301 C 194.211 285.233,193.861 280.471,195.521 267.654 C 198.049 248.134,196.949 242.860,190.795 244.998 M210.404 244.939 C 207.187 245.931,206.438 248.097,207.482 253.395 C 208.749 259.826,208.523 267.216,206.683 279.562 C 204.606 293.499,204.942 295.144,209.846 295.073 C 214.566 295.004,217.082 292.104,215.370 288.705 C 213.056 284.112,212.811 279.907,214.150 267.726 C 215.192 258.244,215.365 258.023,218.663 261.961 C 224.577 269.024,230.456 278.812,234.318 288.029 C 236.724 293.770,237.998 295.014,241.471 295.014 C 245.598 295.014,247.086 292.172,246.466 285.471 C 245.857 278.887,246.047 275.022,247.579 262.904 C 249.005 251.623,248.786 247.454,246.663 245.459 C 245.066 243.959,240.338 245.241,238.903 247.563 C 238.293 248.550,238.352 249.204,239.229 251.200 C 241.319 255.953,241.671 266.642,240.097 277.589 C 239.665 280.594,239.614 280.767,239.156 280.767 C 238.702 280.767,238.738 280.831,236.841 276.628 C 233.357 268.906,228.306 260.853,221.843 252.712 C 216.083 245.456,213.787 243.896,210.404 244.939 M114.192 244.969 C 102.848 245.720,101.696 246.228,100.700 250.927 C 100.018 254.143,100.322 255.042,102.024 254.850 C 103.342 254.702,103.345 254.720,103.334 263.233 C 103.325 270.009,103.310 270.236,102.531 275.507 C 100.296 290.633,102.203 294.246,112.945 295.241 C 125.200 296.376,135.213 291.432,132.724 285.475 C 131.898 283.498,131.023 283.263,128.598 284.368 C 125.221 285.907,121.566 286.683,117.699 286.682 C 109.697 286.681,107.419 283.850,108.518 275.277 L 108.762 273.374 110.217 273.258 C 111.017 273.194,114.581 273.220,118.137 273.315 C 125.410 273.510,125.500 273.496,126.691 271.993 C 128.149 270.151,128.990 267.229,128.389 266.090 C 127.907 265.176,127.010 265.114,118.263 265.387 C 113.812 265.526,110.124 265.594,110.068 265.539 C 110.013 265.483,110.092 264.177,110.245 262.637 C 110.397 261.096,110.583 258.405,110.658 256.658 L 110.795 253.479 113.973 253.283 C 116.048 253.154,119.193 253.174,123.035 253.338 C 129.813 253.629,130.121 253.574,131.551 251.810 C 133.726 249.129,134.073 246.272,132.338 245.326 C 131.640 244.945,118.468 244.686,114.192 244.969 M302.442 245.338 C 300.984 245.938,300.076 246.556,299.305 247.472 C 298.355 248.601,298.381 248.946,299.606 251.428 C 301.145 254.544,301.574 256.679,301.740 262.040 L 301.870 266.217 301.107 267.216 C 299.587 269.208,298.348 273.487,298.926 274.754 C 299.181 275.314,299.257 275.339,300.304 275.215 L 301.413 275.084 301.263 276.665 C 300.969 279.781,300.267 284.875,299.718 287.890 C 298.915 292.296,298.821 293.566,299.250 294.220 C 300.349 295.897,305.093 295.380,307.225 293.353 C 308.344 292.288,308.356 292.154,307.809 286.904 C 307.442 283.376,307.271 274.360,307.566 274.062 C 308.010 273.612,311.269 273.454,320.366 273.440 L 330.266 273.425 330.862 272.877 L 331.458 272.329 331.316 273.919 C 331.239 274.794,330.882 277.614,330.525 280.185 C 328.585 294.156,329.635 296.719,336.479 294.717 C 340.793 293.455,341.616 290.801,338.786 287.274 C 336.592 284.538,336.562 280.148,338.632 264.548 C 340.376 251.406,340.326 247.424,338.394 245.573 C 336.661 243.912,331.777 245.082,330.295 247.513 C 329.727 248.446,329.751 249.081,330.432 251.111 C 331.423 254.064,331.844 256.708,331.986 260.877 L 332.118 264.767 325.785 264.766 C 322.302 264.765,316.959 264.878,313.912 265.016 C 310.865 265.154,308.318 265.213,308.251 265.146 C 308.185 265.080,308.304 263.167,308.516 260.896 C 309.817 246.985,308.243 242.952,302.442 245.338 M77.151 253.699 C 82.461 254.991,86.455 259.055,87.597 264.329 C 90.240 276.533,82.001 286.459,69.151 286.553 C 61.796 286.607,61.191 284.490,63.456 266.630 C 63.884 263.255,64.305 259.112,64.391 257.425 L 64.548 254.356 66.066 253.977 C 69.542 253.109,74.241 252.991,77.151 253.699 " stroke="none" fill="#048cec" fill-rule="evenodd"></path><path id="path2" d="M104.274 6.521 C 155.416 6.551,239.104 6.551,290.247 6.521 C 341.389 6.490,299.545 6.465,197.260 6.465 C 94.975 6.465,53.132 6.490,104.274 6.521 M393.095 198.356 C 393.095 290.033,393.120 327.537,393.151 281.699 C 393.181 235.860,393.181 160.852,393.151 115.014 C 393.120 69.175,393.095 106.679,393.095 198.356 M1.643 198.137 C 1.643 289.090,1.668 326.299,1.699 280.822 C 1.729 235.345,1.729 160.929,1.699 115.452 C 1.668 69.975,1.643 107.184,1.643 198.137 M14.393 38.721 C 14.312 38.802,14.247 110.605,14.247 198.283 L 14.247 357.699 197.260 357.699 L 380.274 357.699 380.219 198.192 L 380.164 38.685 197.352 38.630 C 96.805 38.600,14.473 38.641,14.393 38.721 M167.562 73.839 C 169.461 74.716,169.716 75.316,170.301 80.279 C 172.429 98.360,174.188 99.195,179.204 84.507 C 182.334 75.342,183.749 73.428,187.397 73.427 C 190.505 73.425,191.050 75.201,190.657 84.055 C 190.186 94.649,191.001 99.418,193.853 102.759 C 195.727 104.955,194.542 107.382,191.274 108.039 C 187.542 108.789,186.096 106.118,185.663 97.670 C 185.506 94.603,185.564 92.351,185.988 84.994 C 186.111 82.864,186.083 82.128,185.870 81.871 C 185.001 80.825,183.918 82.106,182.895 85.389 C 178.685 98.904,176.167 102.447,171.463 101.470 C 168.245 100.802,166.521 96.055,165.685 85.562 C 165.368 81.568,165.040 80.909,163.639 81.446 C 161.482 82.274,159.780 93.246,160.219 103.486 C 160.363 106.849,159.560 107.794,156.220 108.186 C 153.438 108.513,153.194 105.867,155.069 95.671 C 158.095 79.213,162.506 71.505,167.562 73.839 M210.521 73.839 C 212.420 74.716,212.675 75.316,213.260 80.279 C 215.388 98.360,217.147 99.195,222.163 84.507 C 225.293 75.342,226.708 73.428,230.356 73.427 C 233.464 73.425,234.009 75.201,233.616 84.055 C 233.145 94.649,233.960 99.418,236.812 102.759 C 238.686 104.955,237.501 107.382,234.233 108.039 C 230.501 108.789,229.055 106.118,228.622 97.670 C 228.465 94.603,228.523 92.351,228.947 84.994 C 229.070 82.864,229.042 82.128,228.829 81.871 C 227.960 80.825,226.877 82.106,225.854 85.389 C 221.644 98.904,219.125 102.447,214.422 101.470 C 211.204 100.802,209.479 96.055,208.644 85.562 C 208.326 81.568,207.999 80.909,206.598 81.446 C 204.441 82.274,202.739 93.246,203.178 103.486 C 203.322 106.849,202.518 107.794,199.179 108.186 C 196.396 108.513,196.153 105.867,198.028 95.671 C 201.054 79.213,205.465 71.505,210.521 73.839 M70.710 74.414 C 72.069 74.968,71.796 77.165,70.143 78.963 L 69.092 80.106 65.833 79.998 C 62.711 79.895,56.518 79.957,56.382 80.093 C 56.346 80.129,56.220 81.577,56.103 83.312 C 55.986 85.047,55.833 86.827,55.764 87.269 L 55.639 88.071 61.629 87.948 C 68.919 87.799,69.323 88.038,67.631 91.496 C 66.583 93.639,66.632 93.625,60.430 93.452 C 54.213 93.278,54.807 92.998,54.639 96.182 C 54.383 101.025,55.662 102.256,60.932 102.236 C 63.960 102.225,65.428 101.927,67.994 100.800 C 69.780 100.017,70.307 100.107,70.929 101.306 C 72.934 105.169,67.924 108.310,59.726 108.330 C 50.597 108.352,48.847 105.716,50.501 94.425 C 50.971 91.214,51.064 89.823,51.043 86.316 C 51.011 81.111,50.986 80.986,49.973 80.986 L 49.205 80.986 49.139 79.823 C 48.993 77.284,50.177 75.265,52.107 74.762 C 54.988 74.011,69.074 73.748,70.710 74.414 M114.959 74.161 C 117.828 74.927,118.871 76.010,118.738 78.083 C 118.631 79.753,117.768 81.026,116.344 81.616 L 115.333 82.035 113.573 81.129 C 104.696 76.559,95.255 84.714,97.653 94.884 C 99.436 102.448,107.959 104.810,114.301 99.496 C 117.049 97.195,118.802 98.758,117.154 102.039 C 114.852 106.623,107.313 109.481,101.504 107.973 C 86.708 104.133,91.235 77.686,107.288 74.185 C 109.040 73.802,113.565 73.788,114.959 74.161 M141.061 74.305 C 149.376 76.424,153.024 86.515,149.248 96.951 C 144.324 110.559,125.829 112.772,122.388 100.164 C 121.348 96.355,122.410 88.570,124.381 85.563 C 124.841 84.860,124.806 84.812,124.038 85.080 C 122.615 85.576,121.863 84.672,121.863 82.466 C 121.863 76.838,132.783 72.195,141.061 74.305 M262.271 74.414 C 263.631 74.968,263.357 77.165,261.705 78.963 L 260.653 80.106 257.395 79.998 C 254.273 79.895,248.080 79.957,247.943 80.093 C 247.908 80.129,247.782 81.577,247.665 83.312 C 247.547 85.047,247.395 86.827,247.326 87.269 L 247.201 88.071 253.190 87.948 C 260.480 87.799,260.885 88.038,259.193 91.496 C 258.145 93.639,258.194 93.625,251.991 93.452 C 245.775 93.278,246.368 92.998,246.200 96.182 C 245.945 101.025,247.224 102.256,252.493 102.236 C 255.522 102.225,256.989 101.927,259.556 100.800 C 261.342 100.017,261.869 100.107,262.491 101.306 C 264.496 105.169,259.486 108.310,251.288 108.330 C 242.159 108.352,240.409 105.716,242.063 94.425 C 242.533 91.214,242.626 89.823,242.604 86.316 C 242.572 81.111,242.547 80.986,241.534 80.986 L 240.767 80.986 240.700 79.823 C 240.555 77.284,241.739 75.265,243.668 74.762 C 246.550 74.011,260.635 73.748,262.271 74.414 M281.981 74.198 C 292.466 76.891,291.738 90.782,280.932 94.237 C 279.905 94.565,279.879 94.425,281.346 96.462 C 284.217 100.450,286.750 102.185,289.846 102.286 C 291.767 102.349,291.937 102.463,291.942 103.698 C 291.963 108.657,286.391 109.745,282.002 105.639 C 278.847 102.687,274.630 95.049,274.630 92.285 C 274.630 90.634,275.168 90.282,278.058 90.040 C 281.740 89.732,283.876 88.427,284.503 86.102 C 285.556 82.199,282.463 79.525,277.260 79.839 C 274.012 80.036,273.315 80.312,273.315 81.401 C 273.315 81.902,273.068 84.468,272.767 87.103 C 271.439 98.709,271.556 101.160,273.549 103.487 C 275.259 105.483,273.580 107.856,270.210 108.203 C 266.564 108.580,266.071 106.455,267.505 96.548 C 268.093 92.481,268.485 84.809,268.185 83.211 C 268.037 82.421,268.022 82.411,267.189 82.544 C 265.196 82.863,265.408 78.657,267.464 77.088 C 270.916 74.456,277.713 73.102,281.981 74.198 M316.384 74.161 C 319.252 74.927,320.295 76.010,320.162 78.083 C 320.055 79.753,319.193 81.026,317.768 81.616 L 316.757 82.035 314.998 81.129 C 306.121 76.559,296.680 84.714,299.077 94.884 C 300.860 102.448,309.384 104.810,315.726 99.496 C 318.473 97.195,320.227 98.758,318.579 102.039 C 316.277 106.623,308.738 109.481,302.929 107.973 C 288.133 104.133,292.660 77.686,308.712 74.185 C 310.465 73.802,314.989 73.788,316.384 74.161 M344.682 74.414 C 346.042 74.968,345.768 77.165,344.116 78.963 L 343.064 80.106 339.806 79.998 C 336.684 79.895,330.491 79.957,330.354 80.093 C 330.319 80.129,330.193 81.577,330.076 83.312 C 329.958 85.047,329.806 86.827,329.737 87.269 L 329.612 88.071 335.601 87.948 C 342.891 87.799,343.296 88.038,341.604 91.496 C 340.556 93.639,340.605 93.625,334.402 93.452 C 328.186 93.278,328.779 92.998,328.611 96.182 C 328.356 101.025,329.635 102.256,334.904 102.236 C 337.933 102.225,339.400 101.927,341.967 100.800 C 343.753 100.017,344.280 100.107,344.902 101.306 C 346.907 105.169,341.897 108.310,333.699 108.330 C 324.569 108.352,322.820 105.716,324.473 94.425 C 324.944 91.214,325.037 89.823,325.015 86.316 C 324.983 81.111,324.958 80.986,323.945 80.986 L 323.178 80.986 323.111 79.823 C 322.966 77.284,324.150 75.265,326.079 74.762 C 328.961 74.011,343.046 73.748,344.682 74.414 M133.808 80.104 C 130.301 80.872,129.022 82.322,127.331 87.452 C 124.558 95.866,128.806 102.869,136.329 102.283 C 143.546 101.722,147.819 95.262,146.167 87.408 C 145.029 81.997,139.657 78.823,133.808 80.104 M88.759 94.451 C 89.077 95.045,89.042 95.951,88.652 97.265 C 88.119 99.060,88.101 99.068,84.423 99.072 C 81.500 99.076,79.886 99.186,76.245 99.630 L 75.011 99.780 74.771 99.041 C 74.336 97.701,75.069 94.503,75.886 94.174 C 76.845 93.788,88.539 94.040,88.759 94.451 M248.667 147.700 C 251.083 148.797,251.405 149.980,251.626 158.575 C 252.058 175.337,254.598 184.811,260.199 190.547 C 262.367 192.767,262.409 194.307,260.358 196.358 C 257.586 199.129,253.430 199.015,251.439 196.112 C 249.515 193.307,247.134 186.527,246.662 182.508 C 246.487 181.024,246.549 181.046,245.574 182.124 C 244.361 183.468,243.816 183.526,234.740 183.282 C 230.460 183.167,226.937 183.090,226.911 183.110 C 226.606 183.340,226.416 188.830,226.625 191.370 C 227.041 196.417,225.477 198.210,220.640 198.236 C 217.419 198.254,217.112 197.462,218.288 192.163 C 219.524 186.596,219.484 185.916,217.821 184.245 C 215.329 181.739,217.986 176.073,221.950 175.439 L 222.841 175.297 224.222 171.758 C 228.723 160.220,234.750 151.720,240.518 148.774 C 243.375 147.314,246.818 146.860,248.667 147.700 M54.746 148.179 C 57.057 149.633,57.062 154.620,54.772 172.932 C 53.026 186.900,54.255 189.695,62.137 189.667 C 66.510 189.651,69.255 189.126,73.950 187.406 C 76.616 186.429,78.173 188.909,77.019 192.295 C 74.644 199.263,52.292 201.117,48.205 194.684 C 46.607 192.168,46.454 189.331,47.525 182.027 C 48.699 174.018,48.768 173.145,48.755 166.466 C 48.742 158.946,48.586 157.947,46.909 154.630 C 45.550 151.941,45.531 151.524,46.713 150.242 C 48.750 148.032,52.842 146.981,54.746 148.179 M148.758 148.141 C 158.424 150.564,162.951 157.428,162.941 169.644 C 162.934 179.124,160.372 186.105,154.851 191.688 C 145.254 201.394,128.315 200.778,123.010 190.530 C 119.628 183.996,120.096 173.454,124.124 165.437 L 125.081 163.532 124.469 163.848 C 120.984 165.650,119.064 160.413,121.732 156.384 C 126.133 149.738,139.216 145.748,148.758 148.141 M290.082 148.264 C 304.786 152.640,303.660 172.122,288.396 177.428 L 286.462 178.100 287.903 180.219 C 292.642 187.188,297.074 190.149,302.060 189.675 C 305.837 189.316,304.095 196.708,300.132 197.862 C 293.566 199.772,287.430 194.816,281.426 182.753 C 276.887 173.632,277.333 171.847,284.262 171.413 C 290.308 171.035,293.370 168.408,293.370 163.601 C 293.370 160.068,291.850 158.112,288.168 156.905 C 286.069 156.218,280.981 156.191,278.356 156.854 L 276.712 157.270 276.546 159.457 C 276.454 160.660,276.179 163.419,275.934 165.589 C 274.883 174.916,274.627 177.615,274.491 180.828 C 274.257 186.342,274.826 188.929,276.765 191.168 C 279.734 194.596,276.864 198.242,271.194 198.245 C 266.915 198.248,266.111 195.731,267.381 186.301 C 269.074 173.723,269.435 169.005,269.148 163.229 C 268.977 159.809,269.015 159.917,268.106 160.234 C 265.899 161.003,264.861 158.435,266.011 155.053 C 267.807 149.769,281.841 145.812,290.082 148.264 M334.456 148.154 C 345.026 150.797,350.398 160.643,348.608 174.093 C 346.541 189.625,335.280 199.198,319.890 198.508 C 310.482 198.085,308.835 195.225,310.654 182.466 C 312.269 171.133,312.533 159.230,311.160 159.673 C 309.140 160.325,308.603 159.878,308.603 157.548 C 308.603 153.273,311.584 150.731,318.950 148.724 C 323.835 147.393,330.441 147.151,334.456 148.154 M112.714 148.160 C 115.089 148.868,115.010 152.050,112.542 155.061 C 111.173 156.733,111.383 156.702,102.352 156.556 C 97.954 156.485,93.801 156.497,93.122 156.582 L 91.887 156.737 91.735 159.519 C 91.651 161.049,91.444 163.724,91.273 165.464 C 91.103 167.203,90.988 168.648,91.016 168.676 C 91.045 168.703,93.122 168.631,95.633 168.515 C 102.999 168.174,108.886 168.330,109.298 168.877 C 110.219 170.101,108.956 174.017,107.083 175.744 L 106.110 176.641 98.019 176.505 L 89.928 176.369 89.791 176.915 C 88.613 181.609,89.432 186.747,91.585 188.168 C 95.167 190.532,103.219 190.215,109.199 187.474 C 112.043 186.171,113.291 186.621,113.986 189.200 C 115.450 194.639,108.501 198.422,96.986 198.454 C 83.660 198.491,80.928 194.608,83.265 178.959 C 84.251 172.359,84.465 169.299,84.298 164.164 C 84.094 157.891,84.106 157.946,83.034 158.117 C 81.626 158.342,81.315 158.029,81.315 156.387 C 81.315 152.732,82.655 150.091,85.011 149.104 C 87.477 148.071,109.856 147.308,112.714 148.160 M178.899 148.252 C 183.838 150.644,196.244 168.513,202.234 181.863 C 203.610 184.930,203.770 184.737,204.465 179.178 C 205.886 167.813,205.533 159.626,203.392 154.315 C 202.149 151.232,202.704 149.944,205.918 148.454 C 211.931 145.666,213.862 150.215,212.265 163.401 C 211.958 165.930,211.521 169.529,211.294 171.397 C 210.476 178.122,210.312 181.836,210.651 185.953 C 211.237 193.078,211.013 195.130,209.469 196.786 C 207.604 198.785,203.752 198.723,201.414 196.655 C 200.521 195.866,200.321 195.495,198.585 191.396 C 194.871 182.627,189.389 173.276,184.113 166.710 C 179.958 161.539,179.612 161.552,178.967 166.904 C 177.249 181.141,177.318 186.337,179.282 190.698 C 179.774 191.791,180.236 193.117,180.308 193.645 C 180.941 198.261,171.025 200.361,169.890 195.851 C 169.325 193.606,169.512 191.661,171.663 177.425 C 172.652 170.883,172.698 161.852,171.767 157.103 C 170.810 152.216,171.056 150.264,172.798 148.935 C 174.446 147.678,177.100 147.381,178.899 148.252 M139.355 156.510 C 137.880 156.727,134.242 157.900,133.333 158.454 C 131.986 159.272,128.619 166.779,127.870 170.630 C 125.706 181.759,131.283 189.748,141.151 189.654 C 151.516 189.556,157.817 181.697,156.905 170.006 C 156.185 160.792,148.814 155.123,139.355 156.510 M323.836 156.637 C 323.595 156.688,322.608 156.881,321.644 157.066 C 319.436 157.488,319.643 157.113,319.353 161.194 C 319.216 163.116,318.750 167.406,318.319 170.728 C 317.312 178.473,317.144 185.768,317.937 187.288 C 320.190 191.605,331.816 189.952,337.687 184.479 C 345.563 177.137,344.261 162.524,335.342 158.172 C 332.382 156.727,326.871 155.992,323.836 156.637 M240.838 157.454 C 237.773 158.714,234.817 162.213,232.112 167.781 C 230.925 170.224,229.149 174.657,229.303 174.792 C 229.340 174.824,231.047 174.770,233.096 174.671 C 235.145 174.571,238.812 174.485,241.243 174.478 L 245.665 174.466 245.569 168.603 C 245.456 161.710,245.334 158.765,245.132 158.073 C 244.788 156.898,242.865 156.620,240.838 157.454 M79.552 245.031 C 90.122 247.673,95.494 257.520,93.704 270.970 C 91.637 286.501,80.376 296.075,64.986 295.384 C 55.578 294.962,53.931 292.102,55.749 279.342 C 57.365 268.010,57.629 256.107,56.256 256.550 C 54.236 257.202,53.699 256.755,53.699 254.425 C 53.699 250.150,56.680 247.607,64.046 245.601 C 68.931 244.270,75.536 244.027,79.552 245.031 M178.115 244.974 C 180.815 246.737,180.313 258.683,177.089 269.344 C 172.392 284.879,164.109 294.989,155.570 295.610 C 150.675 295.966,149.121 293.793,148.715 286.027 C 147.905 270.541,144.041 258.787,137.747 252.660 C 135.560 250.531,135.343 250.101,135.709 248.616 C 136.502 245.403,141.084 243.654,144.213 245.370 C 149.506 248.273,153.870 262.722,154.714 280.141 C 154.980 285.611,155.336 286.250,157.943 285.924 C 167.455 284.736,175.245 264.461,170.951 252.066 C 170.473 250.685,170.082 249.324,170.082 249.041 C 170.082 246.367,175.807 243.468,178.115 244.974 M194.106 244.707 C 197.323 245.351,197.697 251.032,195.614 267.616 C 193.950 280.856,194.262 284.966,197.176 288.248 C 199.861 291.271,196.606 295.233,191.439 295.233 C 187.059 295.233,186.273 292.562,187.701 282.521 C 189.383 270.690,189.761 265.595,189.384 259.850 C 189.108 255.654,188.601 253.440,187.453 251.419 C 186.349 249.478,186.262 249.228,186.427 248.477 C 186.813 246.719,191.184 244.115,193.096 244.503 C 193.277 244.540,193.731 244.631,194.106 244.707 M288.548 244.932 C 292.660 246.076,294.559 248.283,293.936 251.190 C 293.098 255.096,289.756 257.251,287.140 255.573 C 276.118 248.500,262.126 257.124,262.139 270.983 C 262.152 285.539,276.348 291.672,287.809 282.073 C 292.740 277.943,294.211 283.830,289.525 288.943 C 283.812 295.178,272.746 297.280,265.096 293.583 C 248.712 285.666,253.519 254.638,272.397 246.458 C 276.972 244.475,284.390 243.774,288.548 244.932 M131.782 245.036 C 134.158 245.744,134.079 248.926,131.611 251.938 C 130.241 253.609,130.451 253.579,121.420 253.433 C 117.023 253.362,112.869 253.374,112.190 253.459 L 110.955 253.614 110.803 256.396 C 110.720 257.926,110.512 260.601,110.342 262.340 C 110.172 264.080,110.056 265.525,110.085 265.553 C 110.113 265.580,112.191 265.507,114.701 265.391 C 122.068 265.051,127.955 265.207,128.366 265.753 C 129.288 266.978,128.025 270.894,126.151 272.621 L 125.179 273.517 117.088 273.381 L 108.996 273.246 108.859 273.791 C 107.681 278.486,108.500 283.624,110.653 285.045 C 114.235 287.409,122.288 287.092,128.267 284.351 C 131.111 283.047,132.360 283.498,133.054 286.077 C 134.519 291.516,127.569 295.298,116.055 295.330 C 102.728 295.367,99.996 291.485,102.334 275.836 C 103.320 269.236,103.533 266.175,103.367 261.041 C 103.163 254.768,103.174 254.822,102.103 254.994 C 100.695 255.219,100.384 254.906,100.384 253.263 C 100.384 249.609,101.724 246.968,104.079 245.981 C 106.546 244.948,128.924 244.184,131.782 245.036 M214.625 245.129 C 219.564 247.521,231.970 265.389,237.960 278.740 C 239.336 281.806,239.496 281.614,240.191 276.055 C 241.613 264.689,241.259 256.502,239.118 251.192 C 237.875 248.109,238.430 246.821,241.644 245.331 C 247.657 242.543,249.589 247.092,247.991 260.277 C 247.684 262.807,247.247 266.405,247.020 268.274 C 246.202 274.999,246.038 278.713,246.377 282.830 C 246.963 289.954,246.739 292.007,245.195 293.662 C 243.330 295.662,239.478 295.599,237.140 293.532 C 236.247 292.743,236.047 292.371,234.311 288.273 C 230.597 279.504,225.115 270.153,219.839 263.587 C 215.684 258.416,215.338 258.429,214.693 263.781 C 212.975 278.018,213.044 283.214,215.008 287.575 C 215.500 288.668,215.962 289.994,216.034 290.522 C 216.667 295.138,206.751 297.238,205.616 292.728 C 205.051 290.483,205.238 288.538,207.389 274.301 C 208.378 267.759,208.424 258.729,207.493 253.979 C 206.536 249.093,206.782 247.140,208.524 245.812 C 210.172 244.555,212.826 244.258,214.625 245.129 M306.229 244.828 C 309.129 245.634,309.928 253.389,308.246 264.411 L 308.116 265.261 310.168 265.115 C 313.266 264.895,324.227 264.557,328.418 264.552 L 332.123 264.548 331.984 261.205 C 331.817 257.201,331.382 254.507,330.392 251.342 C 329.524 248.568,329.571 247.963,330.742 246.792 C 332.671 244.863,336.534 244.010,338.121 245.162 C 340.331 246.768,340.456 251.294,338.675 265.205 C 336.473 282.407,336.548 284.513,339.496 288.072 C 342.243 291.389,339.637 294.838,334.137 295.163 C 329.282 295.450,328.630 292.882,330.371 280.329 C 330.814 277.134,331.235 274.086,331.306 273.554 L 331.435 272.587 330.708 273.199 C 330.005 273.790,329.921 273.806,328.223 273.672 C 322.107 273.189,313.249 273.289,308.548 273.895 L 307.507 274.029 307.507 278.231 C 307.507 280.742,307.686 284.348,307.951 287.189 C 308.511 293.184,308.281 293.752,304.864 294.815 C 300.658 296.124,298.349 294.933,298.946 291.762 C 299.994 286.188,300.313 284.008,301.251 276.009 C 301.329 275.344,301.284 275.109,301.090 275.168 C 299.287 275.716,298.740 275.363,298.740 273.651 C 298.740 271.675,299.848 268.620,301.180 266.927 C 302.628 265.086,301.682 255.963,299.601 251.709 C 299.007 250.494,298.521 249.281,298.521 249.013 C 298.521 246.637,303.333 244.024,306.229 244.828 M68.932 253.514 C 68.690 253.565,67.704 253.758,66.740 253.942 C 64.531 254.364,64.739 253.990,64.448 258.070 C 64.311 259.993,63.846 264.283,63.415 267.605 C 62.408 275.349,62.240 282.645,63.033 284.164 C 65.286 288.482,76.912 286.829,82.783 281.356 C 90.659 274.014,89.357 259.401,80.438 255.048 C 77.478 253.604,71.967 252.869,68.932 253.514 M104.256 390.082 C 155.388 390.113,239.125 390.113,290.338 390.082 C 341.551 390.052,299.715 390.027,197.370 390.027 C 95.025 390.027,53.123 390.052,104.256 390.082 " stroke="none" fill="#040404" fill-rule="evenodd"></path><path id="path3" d="M14.273 38.653 C 14.092 38.872,14.041 80.690,14.082 198.379 L 14.137 357.808 197.315 357.863 L 380.493 357.918 380.493 198.247 C 380.493 110.427,380.419 38.575,380.329 38.575 C 380.238 38.575,380.189 110.378,380.219 198.137 L 380.275 357.699 197.261 357.699 L 14.247 357.699 14.247 198.290 C 14.247 74.598,14.306 38.823,14.510 38.619 C 14.654 38.475,14.716 38.356,14.646 38.356 C 14.576 38.356,14.409 38.490,14.273 38.653 M64.274 74.014 C 64.485 74.069,64.830 74.069,65.041 74.014 C 65.252 73.959,65.079 73.914,64.658 73.914 C 64.236 73.914,64.063 73.959,64.274 74.014 M255.836 74.014 C 256.047 74.069,256.392 74.069,256.603 74.014 C 256.814 73.959,256.641 73.914,256.219 73.914 C 255.797 73.914,255.625 73.959,255.836 74.014 M338.247 74.014 C 338.458 74.069,338.803 74.069,339.014 74.014 C 339.225 73.959,339.052 73.914,338.630 73.914 C 338.208 73.914,338.036 73.959,338.247 74.014 M51.128 86.575 C 51.128 87.118,51.171 87.340,51.223 87.068 C 51.275 86.797,51.275 86.353,51.223 86.082 C 51.171 85.811,51.128 86.033,51.128 86.575 M242.690 86.575 C 242.690 87.118,242.733 87.340,242.785 87.068 C 242.837 86.797,242.837 86.353,242.785 86.082 C 242.733 85.811,242.690 86.033,242.690 86.575 M325.101 86.575 C 325.101 87.118,325.144 87.340,325.196 87.068 C 325.248 86.797,325.248 86.353,325.196 86.082 C 325.144 85.811,325.101 86.033,325.101 86.575 M185.480 94.356 C 185.482 94.838,185.527 95.010,185.580 94.737 C 185.632 94.465,185.630 94.070,185.575 93.860 C 185.520 93.651,185.477 93.874,185.480 94.356 M228.439 94.356 C 228.441 94.838,228.486 95.010,228.539 94.737 C 228.591 94.465,228.589 94.070,228.534 93.860 C 228.479 93.651,228.436 93.874,228.439 94.356 M144.753 103.945 L 144.110 104.658 144.822 104.014 C 145.214 103.660,145.534 103.339,145.534 103.301 C 145.534 103.132,145.353 103.281,144.753 103.945 " stroke="none" fill="#05152d" fill-rule="evenodd"></path><path id="path4" d="M392.876 198.247 C 392.876 289.260,392.901 326.526,392.932 281.059 C 392.962 235.592,392.962 161.127,392.932 115.580 C 392.901 70.033,392.876 107.233,392.876 198.247 M14.174 38.283 C 14.093 38.363,14.027 38.531,14.027 38.656 C 14.027 38.799,14.104 38.805,14.236 38.674 C 14.367 38.543,82.089 38.486,197.468 38.521 L 380.493 38.576 380.493 198.247 L 380.493 357.918 197.260 357.863 C 96.482 357.833,14.027 357.882,14.027 357.973 C 14.027 358.063,96.532 358.137,197.370 358.137 L 380.712 358.137 380.712 198.270 C 380.712 52.694,380.681 38.391,380.366 38.270 C 379.890 38.088,14.356 38.101,14.174 38.283 M340.479 191.178 L 339.836 191.890 340.548 191.247 C 341.212 190.647,341.361 190.466,341.192 190.466 C 341.154 190.466,340.833 190.786,340.479 191.178 M85.575 288.055 L 84.932 288.767 85.644 288.123 C 86.308 287.523,86.457 287.342,86.288 287.342 C 86.250 287.342,85.929 287.663,85.575 288.055 " stroke="none" fill="#0a243c" fill-rule="evenodd"></path></g></svg>